<?xml version="1.0" standalone="no"?>
<!DOCTYPE svg PUBLIC "-//W3C//DTD SVG 1.1//EN" "http://www.w3.org/Graphics/SVG/1.1/DTD/svg11.dtd" >
<svg xmlns="http://www.w3.org/2000/svg">
<metadata></metadata>
<defs>
<font id="flairbuildericonsregular" horiz-adv-x="1540" >
<font-face units-per-em="2048" ascent="1536" descent="-512" />
<missing-glyph horiz-adv-x="512" />
<glyph horiz-adv-x="2048" />
<glyph horiz-adv-x="2048" />
<glyph unicode="&#xd;" horiz-adv-x="2048" />
<glyph unicode=" "  horiz-adv-x="512" />
<glyph unicode="&#x09;" horiz-adv-x="512" />
<glyph unicode="&#xa0;" horiz-adv-x="512" />
<glyph unicode="&#x2000;" horiz-adv-x="819" />
<glyph unicode="&#x2001;" horiz-adv-x="1639" />
<glyph unicode="&#x2002;" horiz-adv-x="819" />
<glyph unicode="&#x2003;" horiz-adv-x="1639" />
<glyph unicode="&#x2004;" horiz-adv-x="546" />
<glyph unicode="&#x2005;" horiz-adv-x="409" />
<glyph unicode="&#x2006;" horiz-adv-x="273" />
<glyph unicode="&#x2007;" horiz-adv-x="273" />
<glyph unicode="&#x2008;" horiz-adv-x="204" />
<glyph unicode="&#x2009;" horiz-adv-x="327" />
<glyph unicode="&#x200a;" horiz-adv-x="91" />
<glyph unicode="&#x202f;" horiz-adv-x="327" />
<glyph unicode="&#x205f;" horiz-adv-x="409" />
<glyph unicode="&#xe000;" horiz-adv-x="500" d="M0 0z" />
<glyph unicode="&#xf000;" horiz-adv-x="1533" d="M628 890q50 0 85.5 35t35.5 84t-35.5 84t-85.5 35t-86 -35t-36 -84t36 -84t86 -35zM280 886q50 0 86 34.5t36 83.5t-36 84t-86 35t-85.5 -35t-35.5 -84t35.5 -83.5t85.5 -34.5zM960 1126q-50 0 -85.5 -35t-35.5 -84t35.5 -83.5t85.5 -34.5t85.5 34.5t35.5 83.5t-35.5 84 t-85.5 35zM1190 902q-126 0 -229 -68.5t-151 -178.5h-191l-261 -252l2 252q-150 0 -255 103t-105 249t105 249.5t255 103.5h524q149 0 254.5 -103.5t105.5 -249.5q0 -54 -17 -107q-24 2 -37 2zM1406 450v94h-168v164h-95v-164h-168v-94h168v-165h95v165h168zM1190 831 q142 0 242 -97.5t100 -236.5t-100 -237t-242 -98q-141 0 -241 98t-100 237t100 236.5t241 97.5z" />
<glyph unicode="&#xf001;" horiz-adv-x="1533" d="M1390 144v672h-672v-672h672zM574 959h960v-959h-960v959zM526 720v-144h-527v959h959v-528h-144v384h-672v-671h384zM1222 429v102h-336v-102h336zM1003 312h102v336h-102v-336z" />
<glyph unicode="&#xf002;" horiz-adv-x="1452" d="M973 1332q0 -84 -59.5 -143.5t-143.5 -59.5t-143 59.5t-59 143.5t59 143.5t143 59.5t143.5 -59.5t59.5 -143.5zM783 1089l-211 82q-7 -9 -19.5 -25.5t-42 -68t-50 -103.5t-32.5 -126.5t-1 -143.5q8 -50 -9.5 -102.5t-51 -96t-76.5 -84t-87 -71.5t-81 -54.5t-60 -35.5 l-24 -12l108 -248q7 2 19 5.5t49.5 18.5t75.5 34t91 53t101.5 74t102 99.5t97.5 126.5q7 0 20 -1t58 -16.5t93.5 -44t124 -92.5t153.5 -152l203 172q-233 262 -269 297q-44 44 -103 78q-2 1 -27 16l-102 77q8 -2 22.5 -4t60 1t90.5 15.5t107.5 48.5t117.5 92l-100 191 q-6 -4 -16 -11t-39.5 -24.5t-58 -30t-65.5 -20.5t-67 -4.5t-58 26t-44 64.5z" />
<glyph unicode="&#xf003;" horiz-adv-x="1647" d="M824 171q146 0 270 72.5t196 197t72 271.5t-72 271.5t-196 197t-270 72.5t-269.5 -72.5t-195.5 -197t-72 -271.5t72 -271.5t195.5 -197t269.5 -72.5zM824 1407q188 0 347 -93t251.5 -253t92.5 -349t-92.5 -349t-251.5 -253t-347 -93t-347 93t-251.5 253t-92.5 349 t92.5 349t251.5 253t347 93zM899 835v261q0 31 -22.5 53t-54.5 22t-54.5 -22t-22.5 -53v-261q0 -31 22.5 -53.5t54.5 -22.5t54.5 22t22.5 54zM936 630h259q31 0 53 23t22 55t-22 54.5t-53 22.5h-259q-31 0 -53.5 -22.5t-22.5 -54.5t22.5 -55t53.5 -23zM1495 135 q22 -22 21.5 -53.5t-22.5 -54.5q-22 -22 -53.5 -22t-53.5 21l-92 93l108 109zM265 22q-23 -22 -54 -21.5t-54 22.5q-22 22 -22.5 54t21.5 54l92 93l108 -110zM502 1459l-421 -423q-78 89 -75.5 208.5t86.5 204.5q85 85 203.5 87.5t206.5 -77.5zM1567 1037l-420 422 q88 80 206.5 77.5t202.5 -87.5t87 -204.5t-76 -207.5z" />
<glyph unicode="&#xf004;" d="M767 251q45 0 72.5 29t26.5 73q0 46 -27.5 74t-71.5 28q-45 0 -73 -28t-28 -74q0 -44 27.5 -73t70.5 -29h3zM855 1019h-177l25 -508h127zM766 1535l768 -1535h-1535z" />
<glyph unicode="&#xf005;" horiz-adv-x="1527" d="M763 291q56 0 91 36.5t34 91.5q-1 56 -35.5 91.5t-89.5 35.5q-56 0 -91 -35.5t-35 -91.5q0 -55 34.5 -91.5t88.5 -36.5h3zM874 1252h-222l31 -635h160zM1142 1420l381 -660l-381 -660h-762l-380 660l380 660h762z" />
<glyph unicode="&#xf006;" horiz-adv-x="1172" d="M1139 506l-489 -478q-28 -26 -66.5 -26t-66.5 26q-28 27 -28 65t27 65l490 479q28 26 66.5 26t66.5 -27t28 -65t-28 -65zM160 639l490 -479q27 -26 27 -64t-28 -65q-27 -26 -66 -26.5t-66 25.5l-490 479q-27 27 -26.5 65t27.5 65t66 27t66 -27zM930 1210q0 -38 -26 -65 t-62 -27h-515q-37 0 -62.5 27t-25.5 65t25.5 65t62.5 27h515q36 0 62 -27t26 -65zM679 1443v-1352q0 -38 -28 -64.5t-67 -26.5t-66.5 26.5t-27.5 64.5v1352q0 38 27.5 65t66.5 27t67 -27t28 -65z" />
<glyph unicode="&#xf007;" horiz-adv-x="1536" d="M446 1028v116h-244v-116h244zM448 463v116h-244v-116h244zM1092 958v244h-428v-244h428zM541 1272h672v-384h-672v384zM657 147v-144h-658v1536h1535v-659h-144v515h-1248v-1248h515zM1390 147v1248h-1248v-1248h1248zM-1 1539h1535v-1536h-1535v1536zM1092 382v244h-428 v-244h428zM541 696h672v-384h-672v384z" />
<glyph unicode="&#xf008;" d="M446 1022v116h-244v-116h244zM448 457v116h-244v-116h244zM1092 952v244h-428v-244h428zM541 1266h672v-384h-672v384zM657 141v-143h-658v1535h1535v-659h-144v515h-1248v-1248h515zM1405 126v572h-572v-572h572zM705 826h829v-828h-829v828zM1291 346v116h-346v-116 h346zM1063 237h116v346h-116v-346z" />
<glyph unicode="&#xf009;" horiz-adv-x="1538" d="M446 1025v116h-244v-116h244zM448 459v116h-244v-116h244zM1092 954v245h-428v-245h428zM541 1268h672v-383h-672v383zM657 144v-144h-658v1535h1535v-658h-144v514h-1248v-1247h515zM1405 128v573h-572v-573h572zM705 829h829v-829h-829v829zM1291 348v116h-346v-116 h346z" />
<glyph unicode="&#xf00a;" horiz-adv-x="1531" d="M446 1025v116h-244v-116h244zM448 459v116h-244v-116h244zM1092 954v245h-428v-245h428zM541 1268h672v-383h-672v383zM486 129l130 -129h-617v1535h1535v-617l-130 129l-14 -14v358h-1248v-1247h359zM1390 503l144 144v-647h-647l144 144h359v359zM751 0l783 782 l-130 130l-782 -783z" />
<glyph unicode="&#xf00b;" horiz-adv-x="1544" d="M1397 144v1248h-1247v-1248h1247zM6 1536h1535v-1536h-1535v1536zM1395 1097v127l-1243 1v-129z" />
<glyph unicode="&#xf00c;" horiz-adv-x="1522" d="M1517 1212h-1516v80q0 61 49.5 103.5t119.5 42.5h437q70 0 119.5 -42.5t49.5 -103.5l706 -11q22 -2 28 -7l7 -18v-44zM703 210l404 404h-238v395h-332v-395h-238zM1 1113h1516v-1013h-1516v1013z" />
<glyph unicode="&#xf00d;" horiz-adv-x="1539" d="M186 855h-180q16 141 82.5 267t167.5 216.5t234.5 143t279.5 52.5q116 0 226 -33.5t200.5 -95.5t162 -145.5t116.5 -187.5t58 -217h-180q-21 141 -103 255.5t-208.5 180.5t-271.5 66q-221 0 -386 -143.5t-198 -358.5zM1353 678h180q-22 -188 -128 -343.5t-273.5 -245 t-361.5 -89.5t-362 89.5t-274 245t-128 343.5h180q33 -214 198 -357.5t386 -143.5q220 0 385 143.5t198 357.5zM503 677l-501 -500h-1v501h502v-1zM1032 856l501 501h1v-502h-502v1z" />
<glyph unicode="&#xf00e;" d="M684 1453q0 39 26.5 61t58 22t58 -22t26.5 -61q-1 -457 -5 -1371q0 -31 -17.5 -52t-42.5 -26t-50 0t-42 26t-17 52q1 457 5 1371zM223 1194q-22 22 -24.5 49.5t11.5 49t35 35.5t48.5 11t49.5 -25q161 -162 483 -486.5t483 -486.5q22 -22 24.5 -49.5t-11.5 -48.5 t-35 -35.5t-48.5 -11.5t-49.5 25q-322 325 -966 973zM1192 1311q22 22 49.5 24.5t49 -11.5t35.5 -35t11 -48.5t-25 -49.5q-648 -644 -973 -967q-22 -22 -49.5 -24.5t-48.5 11.5t-35 35t-11 48.5t25 49.5q162 161 486 483.5t486 483.5zM80 685q-31 0 -52 18t-26 42.5t0 49.5 t26 42.5t52 17.5q229 -1 686 -2.5t685 -2.5q39 0 61 -26.5t22 -58.5t-22 -58.5t-61 -26.5q-914 4 -1371 5z" />
<glyph unicode="&#xf010;" horiz-adv-x="1519" d="M1361 460v713h-192h-423h-242l-283 -338l308 -375h217h423h192zM422 1309h1097v-998h-1097l-422 525zM811 583l333 333l-120 121l-334 -334zM690 916l334 -333l120 120l-333 334z" />
<glyph unicode="&#xf012;" horiz-adv-x="1534" d="M1209 593l-176 177l176 177l-107 107l-177 -177l-176 177l-107 -107l176 -177l-176 -177l107 -107l176 177l177 -177zM401 1231h1132v-891h-1132l-401 434z" />
<glyph unicode="&#xf013;" horiz-adv-x="1689" d="M1686 924q0 -166 -113 -307t-307.5 -223t-423.5 -82q-55 0 -276 -158q-171 -123 -197 -138q-42 -25 -40 -10q0 3 2 8q40 97 19.5 258.5t-76.5 199.5q-129 86 -202 203t-73 249q0 166 112.5 306.5t307 222.5t423.5 82t423.5 -82t307.5 -222.5t113 -306.5z" />
<glyph unicode="&#xf014;" horiz-adv-x="1534" d="M1138 399v761h-984v-761h984zM-3 1247h1300v-936h-1300v936zM1058 1086l-612 -614h-215v614h827zM838 1086h223v-614h-835zM1531 683v183q0 38 -33.5 65t-81.5 27q-7 0 -26 0.5t-25.5 0t-20.5 -2.5t-19 -8t-12.5 -16t-10 -26.5t-2.5 -39.5v-183q0 -15 2 -27t4 -21 t7.5 -16t9 -11.5t12 -7.5t13 -5t15.5 -2.5t16 -0.5h18.5h18.5q48 0 81.5 26.5t33.5 64.5z" />
<glyph unicode="&#xf015;" horiz-adv-x="1491" d="M945 365q64 0 108.5 40t44.5 96t-44.5 96t-108.5 40h-542q-64 0 -108.5 -40t-44.5 -96t44.5 -96t108.5 -40h542zM422 1237q-41 0 -70.5 -29.5t-29.5 -70.5t29.5 -70.5t70.5 -29.5h356q41 0 70.5 29.5t29.5 70.5t-29.5 70.5t-70.5 29.5h-356zM1438 929q29 -30 40 -118.5 t8 -161.5l-3 -73q0 -117 -44 -223.5t-119 -184t-178 -123t-216 -45.5h-371q-151 0 -279 77t-202.5 210t-74.5 289v383q0 156 74.5 289t202.5 210t279 77h371q65 0 112.5 -22.5t73.5 -59.5t41.5 -85t19 -99t4.5 -102t-0.5 -92.5t2 -72.5t14.5 -41q22 -21 76 -18.5t94.5 8 t74.5 -21.5z" />
<glyph unicode="&#xf016;" horiz-adv-x="1155" d="M-1 22v1482q178 31 453 31q163 0 268.5 -19t192.5 -66q84 -46 134 -122t50 -175q0 -104 -64.5 -189t-191.5 -132v-4q138 -35 223.5 -132t85.5 -237q0 -197 -161 -323q-177 -136 -611 -136q-223 0 -379 22zM346 1278v-352h115q137 0 210 50t73 136q0 85 -64 130t-184 45 q-87 0 -150 -9zM346 683v-426q35 -4 136 -4q84 0 149 21t107.5 71.5t42.5 126.5q0 107 -87 159t-228 52h-120z" />
<glyph unicode="&#xf017;" horiz-adv-x="1537" d="M853 1361v-1201q0 -36 -25.5 -61t-62.5 -25t-62.5 25t-25.5 61v1201q0 36 25.5 61t62.5 25t62.5 -25t25.5 -61zM1535 88q-51 -55 -107 -71t-108.5 -0.5t-107 43.5t-108.5 56.5t-106.5 44t-109 -1t-107.5 -71.5v1368q51 55 107.5 71.5t109 1t106.5 -44t108.5 -56.5 t107 -43.5t108.5 0.5t107 71v-1368zM0 79q51 -55 107 -71t108.5 -0.5t107 43.5t109 56.5t107 44t108.5 -1t107 -71.5v1368q-51 55 -107 71.5t-108.5 1t-107 -44l-109 -57t-107 -44t-108.5 1t-107 71.5v-1368z" />
<glyph unicode="&#xf018;" horiz-adv-x="1645" d="M178 1068l-179 310l614 154l192 -259zM867 1276l174 259l598 -173l-168 -303zM825 806l140 -189l668 274l-142 155zM819 804l-640 247l-90 -198l623 -257zM182 775l562 -235l90 187l124 -188l503 220l-3 -378l-628 -381l-649 394z" />
<glyph unicode="&#xf019;" horiz-adv-x="1534" d="M1533 524v-284h-569v284h569zM862 527v-284h-569v284h569zM1240 888v-284h-569v284h569zM569 891v-284h-569v284h569zM1533 1266v-285h-569v285h569zM862 1269v-285h-569v285h569z" />
<glyph unicode="&#xf01a;" horiz-adv-x="1516" d="M195 495h-195v671h1511v-671h-167v25h-107v-25h-935v26h-107v-26zM1344 415h167v-265h-1511v265h195v-119h107v119h935v-120h107v120zM463 1397h622v-267h-107v107v29v24h-408v-24v-29v-107h-107v267z" />
<glyph unicode="&#xf01b;" horiz-adv-x="1522" d="M1055 337q152 123 207.5 288t5.5 330t-197 291l166 134q143 -121 217 -276.5t72 -313t-80 -312.5t-226 -275l-5 -5l-166 135q1 1 3 2t3 2zM854 522q90 73 123 170.5t3 195t-117 171.5l99 80q113 -96 152 -222.5t-3 -253t-159 -221.5q-1 0 -3 -2l-98 79zM872 688 q43 41 43 100.5t-44 101.5t-106 42.5t-106 -41.5q-43 -42 -43 -101t44 -101q44 -43 106.5 -43t105.5 42zM476 1242q-152 -123 -207.5 -288t-5.5 -330t197 -291l-166 -135q-143 121 -216.5 277t-71.5 313.5t79.5 312.5t224.5 275q2 2 6 4l166 -134q-1 0 -3 -2t-3 -2z M677 1057q-90 -73 -123 -170.5t-3 -195t117 -171.5l-99 -80q-113 96 -152 222.5t3 253t159 220.5l3 3l98 -79z" />
<glyph unicode="&#xf01c;" horiz-adv-x="1218" d="M1099 1156v258h-231v-258h231zM1099 820v258h-231v-258h231zM1099 148v258h-231v-258h231zM862 742v-258h231v258h-231zM325 1156v258h-231v-258h231zM325 820v258h-231v-258h231zM325 484v258h-231v-258h231zM325 148v258h-231v-258h231zM-1 1535h1214v-1535h-456v388 h-336v-388h-422v1535z" />
<glyph unicode="&#xf01d;" horiz-adv-x="1536" d="M254 768q0 -53 -37 -90.5t-90 -37.5t-90 37.5t-37 90.5t37 90t90 37t90 -37.5t37 -89.5zM254 127q0 -53 -37 -90t-90 -37t-90 37t-37 90t37 90.5t90 37.5t90 -37.5t37 -90.5zM254 1408q0 -53 -37 -90.5t-90 -37.5t-90 37.5t-37 90.5t37 90t90 37t90 -37.5t37 -89.5z M1534 240v-240h-1055v240h1055zM1534 888v-240h-1055v240h1055zM1534 1535v-240h-1055v240h1055z" />
<glyph unicode="&#xf01e;" horiz-adv-x="1536" d="M1418 1126v322h-1304v-322h1304zM-1 1535h1535v-1535h-1535v1535zM442 808v214h-318v-214h318zM925 811v213h-318v-213h318zM1420 813v214h-318v-214h318zM439 445v214h-318v-214h318zM922 448v214h-318v-214h318zM1417 450v214h-318v-214h318zM439 103v214h-318v-214 h318zM914 106v214h-317v-214h317z" />
<glyph unicode="&#xf021;" horiz-adv-x="1517" d="M757 363q137 0 234 97t97 234t-97 234t-234 97t-234 -97t-97 -234t97 -234t234 -97zM1321 1132h193v-852h-1514v852h186l295 161h568zM972 690q0 89 -63 152t-152 63t-152 -63t-63 -152t63 -152t152 -63t152 63t63 152z" />
<glyph unicode="&#xf022;" horiz-adv-x="1517" d="M1294 487h-729l-237 717h-281l-45 116h407l237 -718h567l150 465h-703l96 -291l450 1l-31 -116l-500 -1l-171 523h1015zM1112 345v-38h-328v38h328zM1340 330q0 -41 -29 -70.5t-69 -29.5t-69 29.5t-29 70.5q0 42 28.5 71.5t69.5 29.5t69.5 -29.5t28.5 -71.5zM748 330 q0 -41 -29 -70.5t-69 -29.5t-69 29.5t-29 70.5q0 42 28.5 71.5t69.5 29.5t69.5 -29.5t28.5 -71.5z" />
<glyph unicode="&#xf023;" horiz-adv-x="1526" d="M169 431v-361h-169v361h169zM494 642v-572h-170v572h170zM839 878v-808h-170v808h170zM1182 1176v-1106h-170v1106h170zM1525 1406v-1336h-170v1336h170z" />
<glyph unicode="&#xf024;" horiz-adv-x="914" d="M257 1451l-1 -81q0 -11 -3 -18t-7 -10t-12 -4.5t-14.5 -1t-18.5 1t-20 0.5l-13 5q-8 0 -23 -1t-20 0t-12.5 3.5t-9.5 10t-2 20.5l1 75q1 33 23.5 56.5t53.5 23.5q32 0 55 -23.5t23 -56.5zM890 1338h-873q-18 0 -18 -28v-1286q0 -27 18 -27h873q19 0 19 27v1286 q0 11 -5.5 19.5t-13.5 8.5zM111 738v402h670v-402h-670zM299 190v-99h-192v99h192zM299 343v-100h-192v100h192zM299 492v-99h-192v99h192zM303 640v-99h-192v99h192zM539 190v-99h-192v99h192zM539 343v-100h-192v100h192zM539 492v-99h-192v99h192zM543 640v-99h-192v99 h192zM779 190v-99h-192v99h192zM779 343v-100h-192v100h192zM779 492v-99h-192v99h192zM783 640v-99h-192v99h192z" />
<glyph unicode="&#xf025;" horiz-adv-x="1501" d="M956 1336v-1336h-413v1336h413zM1500 655v-655h-414v655h414zM412 866v-866h-412v866h412z" />
<glyph unicode="&#xf026;" horiz-adv-x="1533" d="M1195 441l-431 248l-246 -407l-431 108l35 140l328 -82l264 436l381 -220l110 517l141 -30zM1534 0h-1535v156h1535v-156zM154 1535v-1535h-155v1535h155z" />
<glyph unicode="&#xf027;" horiz-adv-x="1533" d="M799 499h-60v570h60v-570zM220 498h-60v336h60v-336zM1372 498h-60v336h60v-336zM1370 835v-60h-1208v60h1208zM962 1535v-393h-392v393h392zM962 393v-393h-392v393h392zM1534 393v-393h-393v393h393zM391 393v-393h-392v393h392z" />
<glyph unicode="&#xf028;" horiz-adv-x="1547" d="M743 711h-732q0 6 -1 17.5t-1.5 21t-0.5 17.5q0 209 103 385.5t279.5 279.5t385.5 103q242 0 440 -139l-471 -685h-2zM1269 1355q129 -108 202 -261t73 -327q0 -153 -58.5 -293t-158 -242t-237.5 -164.5t-290 -67.5v673zM697 75v534h-593q33 -222 200 -373t393 -161z M18 654h725v-654q-277 12 -481 197.5t-244 456.5z" />
<glyph unicode="&#xf029;" horiz-adv-x="1525" d="M673 383l846 692l5 -5l-790 -1070l-734 586z" />
<glyph unicode="&#xf02a;" horiz-adv-x="1534" d="M766 0q-208 0 -384.5 103t-279.5 279.5t-103 385.5q0 208 103 384.5t279.5 279.5t384.5 103q156 0 298 -61t245 -163.5t164 -244.5t61 -298q0 -208 -103 -385t-280 -280t-385 -103zM766 1334q-153 0 -283.5 -76t-206.5 -206.5t-76 -283.5q0 -154 76 -284.5t206.5 -206.5 t283.5 -76t283.5 76t206.5 206.5t76 284.5q0 153 -76 283.5t-206.5 206.5t-283.5 76z" />
<glyph unicode="&#xf02b;" horiz-adv-x="1534" d="M1207 327q120 120 162.5 280.5t0 321t-162.5 280.5t-280.5 162t-321 0t-280.5 -162t-162.5 -280.5t0 -321t162.5 -280.5t280.5 -162.5t321 0t280.5 162.5zM223 1310q148 148 345.5 200t395 0t345.5 -200q148 -147 200 -344.5t0 -395t-200 -345.5q-111 -110 -254.5 -167.5 t-288.5 -57.5t-288.5 57.5t-254.5 167.5q-110 111 -167.5 254.5t-57.5 288.5t57.5 288.5t167.5 253.5zM1102 864h-672v-192h672v192z" />
<glyph unicode="&#xf02c;" horiz-adv-x="1537" d="M1207 327q120 120 162.5 280.5t0 321t-162.5 280.5t-280.5 162t-321 0t-280.5 -162t-162.5 -280.5t0 -321t162.5 -280.5t280.5 -162.5t321 0t280.5 162.5zM223 1310q148 148 345.5 200t395 0t345.5 -200q148 -147 200 -344.5t0 -395t-200 -345.5q-111 -110 -254.5 -167.5 t-288.5 -57.5t-288.5 57.5t-254.5 167.5q-110 111 -167.5 254.5t-57.5 288.5t57.5 288.5t167.5 253.5zM1102 864h-672v-192h672v192zM670 1103v-671h192v671h-192z" />
<glyph unicode="&#xf02d;" horiz-adv-x="1549" d="M776 144q127 0 242.5 49.5t199 133t133 199t49.5 242.5t-49.5 242.5t-133 199t-199 133t-242.5 49.5t-242.5 -49.5t-199 -133t-133 -199t-49.5 -242.5t49.5 -242.5t133 -199t199 -133t242.5 -49.5zM776 1535q156 0 298.5 -60.5t245 -163.5t163.5 -245t61 -298 q0 -209 -103 -385.5t-279.5 -279.5t-385.5 -103t-385.5 103t-279.5 279.5t-103 385.5q0 156 61 298t163.5 245t245 163.5t298.5 60.5zM1081 598l-475 475l-135 -136l475 -474zM946 1073l-475 -475l135 -135l475 474z" />
<glyph unicode="&#xf02e;" horiz-adv-x="1525" d="M1028 513q0 -16 8.5 -35.5t16 -29.5t22.5 -29q10 -14 14.5 -20t8.5 -15t-0.5 -13t-16 -7t-32.5 -3q-93 0 -158.5 44.5t-65.5 107.5q0 62 65.5 106.5t158.5 44.5q21 0 32.5 -3t15.5 -7t1 -12.5t-8.5 -16t-15.5 -19.5q-14 -18 -21.5 -28.5t-16 -29.5t-8.5 -35zM1244 859 q0 -179 -130 -306t-314 -127q-71 0 -122 23t-79.5 59.5t-45 96t-21 116.5t-4.5 138q0 95 14.5 165.5t48 127.5t95.5 86.5t151 29.5q182 0 294.5 -114t112.5 -295zM907 538q0 -12 0.5 -41t0.5 -40t-2 -33.5t-5.5 -32t-11 -24t-18.5 -20.5t-27 -11t-38 -5q-151 0 -151 207 t151 207q22 0 38 -5t27 -11t18.5 -20.5t11 -24t5.5 -32t2 -33.5t-0.5 -40t-0.5 -41zM1235 780q0 -42 10 -94.5t17 -85.5t5.5 -63.5t-24.5 -45t-72 -14.5q-129 0 -220 89t-91 214t91 214t220 89q49 0 72 -14.5t24.5 -45t-5.5 -63.5t-17 -85.5t-10 -94.5zM815 776 q0 -92 -17.5 -167t-55 -134.5t-102 -92.5t-152.5 -33t-150.5 33t-96 93t-47 134.5t-8.5 166.5q9 194 73.5 267.5t240.5 73.5q177 0 246 -79.5t69 -261.5zM370 543q0 -54 -5.5 -92t-21 -72t-47 -51.5t-78.5 -17.5q-97 0 -155.5 67t-58.5 166t58.5 165.5t155.5 66.5 q47 0 78.5 -17.5t47 -51.5t21 -72t5.5 -91zM1523 659q0 -144 -104.5 -246t-251.5 -102q-48 0 -76.5 13t-40 33.5t-13 56.5t3 69t10 84.5t5.5 91.5t-5.5 91.5t-10 84.5t-3 69t13 56.5t40 33.5t76.5 13q147 0 251.5 -102t104.5 -246zM1182 427v-115h-988v115h988z" />
<glyph unicode="&#xf030;" horiz-adv-x="1547" d="M1020 0h-484q8 19 20 53.5t39.5 134t42.5 193t13 211.5t-33 209q-9 26 42 42q73 23 175 11q99 -11 100 -46q0 -4 -1 -7q-31 -112 -33.5 -235.5t16 -220.5t41.5 -177.5t42 -123.5zM1544 672q0 -158 -111 -269t-269 -111t-269 111t-111 269q0 157 111.5 268t268.5 111 t268.5 -111t111.5 -268zM768 672q0 -158 -111 -269t-269 -111t-269 111t-111 269q0 157 111.5 268t268.5 111t268.5 -111t111.5 -268zM1156 1155q0 -157 -111.5 -268t-268.5 -111t-268.5 111t-111.5 268t111 268.5t269 111.5t269 -111.5t111 -268.5z" />
<glyph unicode="&#xf031;" horiz-adv-x="1536" d="M1438 96v1343h-384v-1343h384zM958 96v1343h-384v-1343h384zM478 96v1343h-384v-1343h384zM-1 1535h1535v-1535h-1535v1535z" />
<glyph unicode="&#xf032;" horiz-adv-x="1526" d="M404 1258q-98 0 -188 -41q108 89 250 89h674q159 0 271 -107t112 -258q0 -45 -13 -92q-2 170 -128.5 289.5t-304.5 119.5h-673zM1025 749q50 0 85.5 35.5t35.5 85.5t-35.5 86t-85.5 36t-86 -36t-36 -86t36 -85.5t86 -35.5zM681 737q50 0 85.5 35.5t35.5 85.5t-35.5 86 t-85.5 36t-86 -36t-36 -86t36 -85.5t86 -35.5zM372 737q51 0 86.5 35.5t35.5 85.5t-35.5 86t-86.5 36q-50 0 -85.5 -36t-35.5 -86t35.5 -85.5t85.5 -35.5zM1061 1193q159 0 271.5 -107t112.5 -259q0 -151 -112.5 -258t-271.5 -107h-430l-241 -200l-2 200q-159 0 -271 107 t-112 258q0 152 112 259t271 107h673z" />
<glyph unicode="&#xf033;" horiz-adv-x="1335" d="M673 712q161 0 274.5 114t113.5 274v1q-22 -3 -46 -3q-123 0 -219 75t-126 192q-43 -67 -113.5 -107t-153.5 -40q-50 0 -95 15q-24 -67 -24 -133q0 -161 114 -274.5t275 -113.5zM669 1533q177 0 302.5 -125t125.5 -302q0 -178 -125.5 -303t-302.5 -125t-302.5 125 t-125.5 303q0 177 125.5 302t302.5 125zM1260 -1h-1182q-71 166 -71 349q0 55 12.5 102.5t31.5 81t50 68.5t59 59.5t67.5 61t67.5 65.5q20 -54 46.5 -91.5t56.5 -60.5t73.5 -35.5t89 -17t112.5 -4.5q163 0 250.5 44t137.5 171q27 -30 76 -77.5t76.5 -77.5t58.5 -74.5t45 -97 t14 -117.5q0 -183 -71 -349z" />
<glyph unicode="&#xf034;" horiz-adv-x="1557" d="M778 755q110 0 187 77.5t77 186.5v1q-22 -2 -32 -2q-84 0 -149 51t-85 130q-29 -46 -77 -72.5t-105 -26.5q-34 0 -64 9q-16 -41 -16 -90q0 -109 77 -186.5t187 -77.5zM775 1314q121 0 206 -85t85 -206t-85 -206t-206 -85t-206 85t-85 206t85 206t206 85zM1177 270h-804 q-48 115 -48 238q0 45 11 81t33 64.5t43 49.5t54.5 50.5t54.5 52.5q33 -88 88.5 -115.5t168.5 -27.5q110 0 170 30t94 117q19 -20 52 -52.5t51.5 -52.5t39.5 -50.5t30.5 -66.5t9.5 -80q0 -123 -48 -238zM1110 1008v14q51 30 107 30q91 0 154.5 -64t63.5 -154q0 -82 -54 -143 t-134 -72q-1 3 -3 8.5t-3 8.5q75 8 125.5 63.5t50.5 131.5v1q-16 -2 -24 -2q-62 0 -111 38.5t-64 97.5q-43 -69 -127 -74q19 59 19 116zM1417 674q13 -13 47.5 -42.5t48 -44.5t27.5 -45.5t14 -66.5q0 -82 -36 -156h-293q43 100 43 205q0 21 -6 55q61 4 97 25t58 70z M444 1008v14q-49 30 -107 30q-90 0 -154 -64t-64 -154q0 -82 54 -143t134 -72q1 3 3 8.5t3 8.5q-75 8 -125.5 63.5t-50.5 131.5v1q16 -2 24 -2q62 0 111 38.5t64 97.5q44 -69 128 -74q-20 57 -20 116zM137 674q-13 -13 -47.5 -42.5t-48 -44.5t-27.5 -45.5t-14 -66.5 q0 -82 36 -156h293q-42 97 -42 205q0 27 5 55q-60 4 -96.5 25t-58.5 70z" />
<glyph unicode="&#xf035;" horiz-adv-x="1547" d="M297 297l949 950q-92 91 -213.5 141.5t-256.5 50.5q-137 0 -261.5 -53t-214.5 -143t-143 -214t-53 -261q0 -135 51 -256.5t142 -214.5zM776 1535q156 0 298.5 -60.5t245 -163.5t163.5 -245t61 -298q0 -209 -103 -385.5t-279.5 -279.5t-385.5 -103t-385.5 103 t-279.5 279.5t-103 385.5q0 156 61 298t163.5 245t245 163.5t298.5 60.5z" />
<glyph unicode="&#xf036;" horiz-adv-x="1188" d="M1109 937l-187 -1v186h-636v-1047h823v862zM1006 1196l89 -88l88 -88v-1020h-972v1196h795zM1024 682v48h-672v-48h672zM1024 499v48h-672v-48h672zM1024 343v48h-672v-48h672zM253 414v-75h-254v1196h794l89 -88l88 -88v-212h-74v129l-187 -1v185h-636v-1046h180z" />
<glyph unicode="&#xf037;" horiz-adv-x="1538" d="M967 581l22 -120q-62 -29 -173 -29q-169 0 -261.5 94t-92.5 244q0 168 105 263t264 95q111 0 167 -30l-33 -120q-58 25 -128 25q-95 0 -154.5 -57.5t-59.5 -166.5q0 -102 57 -161t158 -59q75 0 129 22zM766 0q-154 0 -294 58t-249 167q-110 110 -167 253.5t-57 289 t57 289t167 254.5q109 109 249 166.5t294 57.5t293.5 -57.5t248.5 -166.5t167 -249t58 -294t-58 -294t-167 -249t-248.5 -167t-293.5 -58zM766 1379q-123 0 -234.5 -46.5t-197.5 -132.5q-118 -117 -159.5 -274.5t0 -315t159.5 -274.5q86 -87 197.5 -133t234.5 -46 q122 0 233.5 46t198.5 133q86 86 132.5 198t46.5 234t-46.5 233.5t-132.5 198.5q-87 86 -198.5 132.5t-233.5 46.5z" />
<glyph unicode="&#xf038;" d="M1288 1247v-959h-144v959h144zM379 1247v-959h-144v959h144zM1534 1535v-1535h-144v1535h144zM142 1535v-1535h-143v1535h143zM1054 1055v-575h-576v575h576z" />
<glyph unicode="&#xf039;" d="M1177 611l17 -95q-46 -22 -135 -22q-134 0 -206.5 74t-72.5 192q0 132 82.5 207t207.5 75q89 0 131 -24l-25 -95q-44 20 -101 20q-74 0 -121.5 -45t-47.5 -131q0 -80 45 -126.5t125 -46.5q58 0 101 17zM676 611l18 -95q-48 -22 -136 -22q-133 0 -205.5 74t-72.5 192 q0 132 82 207t208 75q87 0 131 -24l-26 -95q-42 20 -101 20q-74 0 -121 -45t-47 -131q0 -80 45 -126.5t124 -46.5q60 0 101 17zM766 0q-154 0 -294 58t-249 167q-110 110 -167 253.5t-57 289t57 289t167 253.5q109 109 249 167t294 58t293.5 -58t248.5 -167t167 -248.5 t58 -293.5t-58 -294t-167 -249t-248.5 -167t-293.5 -58zM766 1379q-123 0 -234.5 -46.5t-197.5 -132.5q-118 -118 -159.5 -275t0 -314.5t159.5 -274.5q86 -87 197.5 -133t234.5 -46q122 0 233.5 46t198.5 133q86 86 132.5 197.5t46.5 234.5q0 122 -46.5 233.5t-132.5 198.5 q-87 86 -198.5 132.5t-233.5 46.5z" />
<glyph unicode="&#xf03a;" horiz-adv-x="1524" d="M0 408h1333q-45 -43 -153 -70.5t-242 -27.5h-543q-135 0 -242.5 27.5t-152.5 70.5zM1248 759q77 0 131.5 56t54.5 135t-54.5 134.5t-131.5 55.5t-131.5 -55.5t-54.5 -134.5t54.5 -135t131.5 -56zM1248 1231q114 0 194.5 -82.5t80.5 -198.5q0 -117 -80.5 -199.5 t-194.5 -82.5t-194.5 82.5t-80.5 199.5q0 116 80.5 198.5t194.5 82.5zM813 757q46 11 76 49t30 87q0 51 -32 90t-80 48q-12 45 -48.5 74t-83.5 29q-51 0 -89 -34t-46 -85q-43 -12 -71.5 -49.5t-28.5 -84.5q0 -49 29.5 -87t74.5 -49q10 -48 47.5 -79.5t86.5 -31.5 q52 0 90.5 35.5t44.5 87.5zM119 1262h1095v-459q0 -153 -97.5 -261.5t-235.5 -108.5h-430q-137 0 -234.5 108.5t-97.5 261.5v459z" />
<glyph unicode="&#xf03b;" d="M8 1535l1354 -635l-358 -232l534 -535l-133 -133l-534 535l-244 -375z" />
<glyph unicode="&#xf03c;" horiz-adv-x="1260" d="M985 370q-42 -22 -54 -73t9 -105l2 -5q2 -3 4.5 -9t3.5 -9q32 -59 86.5 -83t100.5 1q46 24 56 82.5t-21 117.5t-86 83t-101 0zM482 688q-6 14 -17 37.5t-42.5 93.5t-59 137t-62.5 153t-58 157.5t-39.5 134t-13.5 98t26 36.5l649 -1204q19 72 77 105q68 36 149.5 0.5 t127.5 -122.5q47 -86 31.5 -173t-83.5 -123q-67 -36 -148.5 -0.5t-127.5 121.5q-2 3 -7 16l-5 -2q-8 21 -25 61t-86.5 170.5t-157.5 268.5zM312 192q21 54 9 105t-54 73q-46 24 -101 0t-86 -83t-21 -117.5t56 -82.5q46 -25 100.5 -1t86.5 83q2 3 4 9t4 9h-1zM1036 1535 q57 -1 -9.5 -213t-161.5 -423l-95 -211l-128 -35q-88 -138 -155.5 -263t-90.5 -181l-23 -56l-5 2q-5 -13 -7 -16q-46 -86 -127.5 -121.5t-148.5 0.5t-82.5 123t30.5 173q46 87 127.5 122.5t149.5 -0.5q58 -33 77 -105z" />
<glyph unicode="&#xf03d;" horiz-adv-x="1517" d="M1510 1022v-490h-1512v490h1512z" />
<glyph unicode="&#xf03e;" horiz-adv-x="1530" d="M34 1186q0 6 3 10h1455q3 -5 3 -10q0 -28 -86.5 -58.5t-260 -53t-383.5 -22.5t-384 22.5t-260.5 53t-86.5 58.5zM763 976q158 0 313 14t289 49.5t163 86.5v-254q-29 -51 -163 -86.5t-289 -49.5t-313 -14t-313 14t-288.5 49.5t-162.5 86.5v254q29 -51 162.5 -86.5 t288.5 -49.5t313 -14zM1495 1201q0 -5 -3 -9h-1456q-2 6 -2 9q0 29 86.5 59.5t260 53t384.5 22.5q210 0 383.5 -22.5t260 -53t86.5 -59.5zM763 609q158 0 312.5 13.5t289 49.5t163.5 87v-254q-29 -51 -163 -86.5t-289 -49.5t-313 -14t-313 14t-288.5 49.5t-162.5 86.5v253 q29 -51 163 -86.5t288.5 -49t312.5 -13.5zM763 254q158 0 313 14t289 49.5t163 86.5v-254q-29 -51 -163 -86.5t-289 -49.5t-313 -14t-313 14t-288.5 49.5t-162.5 86.5v254q29 -51 162.5 -86.5t288.5 -49.5t313 -14z" />
<glyph unicode="&#xf040;" horiz-adv-x="1536" d="M995 1444v-99h-456v99h456zM1205 1536v-305h-144v305h144zM467 1536v-305h-144v305h144zM820 901h123v-713h-208v382q0 82 -5 100q-4 16 -26 25q-20 9 -93 9h-20v83q151 27 229 114zM1379 1094v-78h-1222v78h1222zM1535 1440h-266v-96h122v-1247h-1248v1247h122v96h-265 v-1439h1535v1439z" />
<glyph unicode="&#xf041;" horiz-adv-x="1542" d="M1423 91v633h-633v-633h633zM733 805v633h-633v-633h633zM-1 1535h1535v-1535h-1535v1535z" />
<glyph unicode="&#xf042;" horiz-adv-x="1527" d="M1523 323h-391v135h262v47h-302v483h431v-665zM1220 640h174v213h-174v-213zM1023 320h-375v135h246v48h-288v485h417v-668zM735 638h159v215h-159v-215zM563 1058h-128v205h128v-205zM559 503h-128v488h128v-488zM362 505h-362v457h233v310h129v-767zM128 640h105v187 h-105v-187z" />
<glyph unicode="&#xf043;" horiz-adv-x="1523" d="M529 358q-59 0 -103.5 11t-71.5 26t-51.5 46.5t-37.5 56.5t-37.5 74.5t-42.5 81.5h-184v243h184q18 32 42.5 81.5t37.5 74.5t37.5 56.5t51.5 46.5t71.5 26t103.5 11h53v-226h181q87 0 87 -61q0 -60 -87 -60h-181v-141h165q87 0 87 -60q0 -18 -6 -28t-21 -14.5t-25.5 -5 t-34.5 -0.5h-165v-239h-53zM968 1193q59 0 102 -10.5t69 -26.5t48.5 -46.5t35 -57t34.5 -73.5t42 -82h221v-243h-221q-20 -35 -42 -82t-34.5 -73.5t-35 -57t-48.5 -46.5t-69 -26.5t-102 -10.5h-53v835h53z" />
<glyph unicode="&#xf044;" horiz-adv-x="1538" d="M1332 1128v-63h-867v63h867zM1314 310v-196h-304v196h304zM1396 719v489h-995v-489h995zM1396 61v302h-995v-302h995zM263 1281h1271v-1281h-1271v1281zM1332 872v-63h-867v63h867zM78 1458v-1208h-78v1284h1271v-76h-1193z" />
<glyph unicode="&#xf045;" horiz-adv-x="1249" d="M1151 1203l-240 -2v238h-816v-1343h1056v1107zM1019 1535l114 -113l114 -113v-1309h-1247v1535h1019z" />
<glyph unicode="&#xf046;" horiz-adv-x="1247" d="M1150 1203l-240 -2v238h-816v-1343h1056v1107zM1018 1535l114 -113l114 -113v-1309h-1247v1535h1019zM531 706l-99 -167l-194 327h199zM577 294l100 167l184 -310h-199zM246 154l424 714h198l-424 -714h-198z" />
<glyph unicode="&#xf047;" horiz-adv-x="1249" d="M1150 1203l-240 -2v238h-816v-1343h1056v1107zM1018 1535l114 -113l114 -113v-1309h-1247v1535h1019zM569 675q-5 18 13 26q18 7 26 -13q0 -2 1 -4q11 -38 45 -103.5t40 -77.5q16 -35 36 -65q23 -83 75 -44q-73 12 -256 -93l-21 -11q2 2 16 13q-6 -5 -1 -1 q-31 -22 -29 -11q9 49 39.5 163t39.5 177q11 87 1 164q-17 -1 -15 -37t20 -53q9 -17 22.5 -57.5t23.5 -57.5q6 -11 -0.5 -22.5t-17 -12.5t-18.5 11q-4 7 -30.5 52.5t-35.5 67t-21.5 60t-7 69t25.5 56.5q14 17 31 12q110 -34 64 -278q-37 -210 -98 -424q-5 -17 -27 -35.5 t-44.5 -20.5t-35.5 25q-34 91 68 172q99 76 146 100q81 41 150 30q17 -3 34.5 -8t37.5 -15t32 -22.5t16.5 -30.5t-8.5 -40q-74 -132 -197 47q-74 109 -130 262q-7 19 -10 30z" />
<glyph unicode="&#xf048;" horiz-adv-x="1249" d="M1150 1203l-240 -2v238h-816v-1343h1056v1107zM1018 1535l114 -113l114 -113v-1309h-1247v1535h1019zM994 656v22l-4 3l-83 -2q-30 0 -71 2l-4 -4v-21l3 -4q31 -1 39 -3q16 -1 16 -17q0 -9 -7 -36l-63 -242q-97 227 -136 333h-33q-13 -32 -19 -44l-42 -98 q-16 -36 -41 -92l-45 -103l-21 92q-17 77 -19 87l-12 62q-7 32 -7 43q0 9 4 12q5 5 18 5q1 0 28 2l3 3v22l-4 3q-98 -2 -113 -2q-12 0 -96 2l-4 -4v-21l4 -3q22 -2 28 -3q13 -3 20 -24q5 -17 10 -39l89 -391h52l16 38q27 66 39 91l93 211q13 -34 14 -36l21 -49 q49 -119 83 -208l19 -47h54q2 17 23 93l32 118q26 90 33 119q20 65 32 101q4 9 10 17q8 6 18 7q2 1 19 1z" />
<glyph unicode="&#xf049;" horiz-adv-x="833" d="M495 0h-186v179q-90 4 -176.5 26.5t-142.5 54.5l56 220q149 -83 312 -83q83 0 132.5 31t49.5 86q0 53 -47 90t-154 73q-165 56 -252 136t-87 209q0 127 84.5 217t233.5 117v179h185v-165q149 -5 275 -62l-57 -213q-135 66 -271 66q-84 0 -123 -31.5t-39 -76.5 q0 -44 52 -79.5t176 -79.5q167 -60 239.5 -142.5t72.5 -211.5q0 -130 -87.5 -225t-245.5 -121v-194z" />
<glyph unicode="&#xf04a;" horiz-adv-x="1058" d="M959 765v671h-864v-671h864zM188 547q26 0 44.5 18.5t18.5 44.5t-18.5 44.5t-44.5 18.5t-44.5 -18.5t-18.5 -44.5t18.5 -44.5t44.5 -18.5zM0 1535h1055v-1535h-1055v1535z" />
<glyph unicode="&#xf04b;" horiz-adv-x="1294" d="M240 1535h1055v-1535h-96v1l-524 250v361h105v-259l414 415l-414 414v-259h-105v378l516 135h-855v-513h-96v612zM857 684v167h-857v-167h857zM852 527v481l241 -240zM338 0v610h-100v-610h100z" />
<glyph unicode="&#xf04c;" horiz-adv-x="1544" d="M1544 768q0 -209 -103 -385.5t-279.5 -279.5t-385.5 -103t-385.5 103t-279.5 279.5t-103 385.5q0 156 61 298t163.5 245t245 163.5t298.5 60.5t298.5 -60.5t245 -163.5t163.5 -245t61 -298z" />
<glyph unicode="&#xf04d;" horiz-adv-x="1538" d="M766 0q-208 0 -384.5 103t-279.5 279.5t-103 385.5q0 208 103 384.5t279.5 279.5t384.5 103q156 0 298 -61t245 -163.5t164 -244.5t61 -298q0 -208 -103 -385t-280 -280t-385 -103zM766 1303q-109 0 -208.5 -42.5t-171 -114t-114 -170.5t-42.5 -208t42.5 -208.5t114 -171 t171 -114t208.5 -42.5t208 42.5t171 114t114.5 171t42.5 208.5q0 145 -72 268.5t-195.5 195t-268.5 71.5z" />
<glyph unicode="&#xf04e;" horiz-adv-x="1516" d="M445 900v-288h625v288h-625zM1099 348v829l415 -414zM414 1177v-829l-414 414z" />
<glyph unicode="&#xf050;" horiz-adv-x="853" d="M854 427h-854l427 -427zM257 1535h340v-1098h-340v1098z" />
<glyph unicode="&#xf051;" horiz-adv-x="1524" d="M757 380l521 600h-1043zM6 1080h1513l-757 -860z" />
<glyph unicode="&#xf052;" d="M769 0l-768 768v-768h768zM1230 1535l306 -306l-997 -978l-306 306z" />
<glyph unicode="&#xf053;" horiz-adv-x="1538" d="M1534 703h-246v-420h-1044v420h-245v-703h1535v703zM1188 909h-844l422 -422zM598 1535h336v-615h-336v615z" />
<glyph unicode="&#xf054;" horiz-adv-x="1536" d="M1534 768l-769 -768h769v768zM-1 1229l305 306l978 -977l-306 -306z" />
<glyph unicode="&#xf055;" horiz-adv-x="1536" d="M1533 1533l-767 -1534l-767 1534h1534z" />
<glyph unicode="&#xf056;" horiz-adv-x="1536" d="M1375 576q23 0 39.5 19.5t16.5 47.5t-16.5 47.5t-39.5 19.5h-1218q-23 0 -39.5 -19.5t-16.5 -47.5t16.5 -47.5t39.5 -19.5h1218zM0 945h1531v-604h-1531v604zM1155 1227l376 -257h-1531l432 257h723z" />
<glyph unicode="&#xf057;" horiz-adv-x="1534" d="M766 552q-89 0 -152 63.5t-63 152.5t63 152t152 63t152 -63t63 -152t-63 -152.5t-152 -63.5zM766 846q-33 0 -56 -23t-23 -55q0 -33 23 -56t56 -23q32 0 55.5 23t23.5 56q0 32 -23.5 55t-55.5 23zM766 0q-232 0 -424.5 127.5t-282.5 341.5q-60 143 -60 299q0 155 58 295 q90 215 283 343.5t426 128.5q156 0 298 -61t245 -163.5t164 -244.5t61 -298q0 -208 -103 -385t-280 -280t-385 -103zM766 1433q-202 0 -369 -111.5t-245 -297.5q-51 -123 -51 -256q0 -137 52 -259q78 -185 245 -296t368 -111q180 0 333.5 89.5t242.5 242.5t89 334 q0 180 -89 333t-242.5 242.5t-333.5 89.5z" />
<glyph unicode="&#xf058;" horiz-adv-x="1517" d="M1510 730h-1511l787 598zM1516 440v236h-1512v-236h1512z" />
<glyph unicode="&#xf059;" horiz-adv-x="1155" d="M1152 968q0 -69 -49 -118t-119 -49q-69 0 -118 49t-49 118q0 70 49 119t118 49q70 0 119 -49t49 -119zM737 978q0 -69 -49 -118t-118 -49q-70 0 -119 49t-49 118q0 70 49 119t119 49q69 0 118 -49t49 -119zM342 993q0 -69 -49 -118t-118 -49q-70 0 -119 49t-49 118 q0 70 49 119t119 49q69 0 118 -49t49 -119z" />
<glyph unicode="&#xf05a;" horiz-adv-x="1539" d="M1363 333l-398 414l465 398l-658 -392l-685 389l465 -399l-403 -418l484 337l123 -124l129 129zM0 1223h1536v-993h-1536v993z" />
<glyph unicode="&#xf05b;" horiz-adv-x="1538" d="M768 96q137 0 261 53t214 143t143 214.5t53 261.5t-53 261t-143 214t-214 143t-261 53t-261.5 -53t-214.5 -143t-143 -214t-53 -261q0 -182 90 -337t245 -245t337 -90zM768 1535q156 0 298 -60.5t245 -163.5t163.5 -245t60.5 -298t-60.5 -298.5t-163.5 -245t-245 -163.5 t-298 -61q-209 0 -385.5 103t-279.5 279.5t-103 385.5q0 156 61 298t163.5 245t245 163.5t298.5 60.5zM640 973q0 59 -42.5 101.5t-101.5 42.5q-60 0 -102 -42.5t-42 -101.5q0 -60 42 -102t102 -42q59 0 101.5 42t42.5 102zM1183 973q0 59 -42 101.5t-102 42.5 q-59 0 -101 -42.5t-42 -101.5q0 -60 42 -102t101 -42q60 0 102 42t42 102zM1242 633h72q-44 -186 -195 -307t-346 -121t-346 121t-195 307h71q43 -157 173 -257.5t297 -100.5q166 0 296.5 101t172.5 257z" />
<glyph unicode="&#xf05c;" horiz-adv-x="1061" d="M1059 202v-194q-56 -8 -108 -8q-208 0 -384.5 103t-279.5 279.5t-103 385.5q0 208 103 384.5t279.5 279.5t384.5 103q52 0 108 -8v-194q-58 10 -108 10q-156 0 -288.5 -77t-209.5 -209.5t-77 -288.5t77 -289t209.5 -210t288.5 -77q50 0 108 10zM844 848v192h-346 l-57 -192h403zM856 537v192h-423l58 -192h365zM114 848l39 192h-153v-192h114zM165 537l-39 192h-133v-192h172z" />
<glyph unicode="&#xf05d;" horiz-adv-x="623" d="M620 583h-620v952h620v-952zM0 433h620v-433h-620v433z" />
<glyph unicode="&#xf05e;" horiz-adv-x="1533" d="M1150 585h96v-585h-1247v1535h1019l114 -113l114 -113v-484h-96v378l-240 -2v238h-816v-1343h1056v489zM1293 640v144h-681v-144h681zM1316 494v435l218 -217z" />
<glyph unicode="&#xf060;" horiz-adv-x="1521" d="M141 817q6 -10 16 -26.5t47 -62.5t79 -85.5t109.5 -83.5t140.5 -69t171 -29.5t200.5 22.5t230.5 100t260 190q-6 9 -16 25t-47.5 60t-79.5 82t-110 80t-140.5 66.5t-170.5 29.5t-200.5 -20t-230 -93.5t-259.5 -178.5v-7zM2 828q172 132 334 215t290.5 111t245.5 26.5 t205 -35t163 -77t126 -96t87 -95.5t53 -72l16 -29q-153 -140 -302.5 -228t-273.5 -118.5t-240.5 -30t-209 35t-173.5 79.5t-139 99.5t-99.5 99.5t-62.5 75l-20 31v9zM785 995q114 0 163.5 -45t49.5 -156t-49.5 -156.5t-163.5 -45.5q-112 0 -156.5 44.5t-44.5 157.5 q0 14 4 42l197 -42l-118 156q6 3 33 17t47.5 21t37.5 7zM791 515q150 0 224.5 70t74.5 217q0 146 -74.5 216.5t-224.5 70.5q-148 0 -217.5 -69.5t-69.5 -217.5t69.5 -217.5t217.5 -69.5zM826 1163q182 0 266 -88t84 -273q0 -182 -100 -277.5t-285 -95.5q-184 0 -278.5 94.5 t-94.5 278.5q0 179 109.5 270t298.5 91z" />
<glyph unicode="&#xf061;" horiz-adv-x="737" d="M465 0h-326v803h-139v238h139v41q0 101 32.5 194.5t98.5 154.5q113 104 292 104q85 0 171 -21l-13 -249q-52 15 -105 15q-76 0 -114 -51.5t-38 -134.5v-53h210v-238h-208v-803z" />
<glyph unicode="&#xf062;" horiz-adv-x="1246" d="M1146 1203l-238 -2v238h-812v-1343h1050v1107zM1015 1535l114 -113l113 -113v-1309h-1242v1535h1015zM1038 875v62h-858v-62h858zM1038 641v61h-858v-61h858zM1038 440v62h-858v-62h858z" />
<glyph unicode="&#xf063;" horiz-adv-x="1538" d="M1535 1193l-576 -580l-6 -486l-350 -127l-15 613l-588 580h1535zM1535 1535v-240h-1535v240h1535z" />
<glyph unicode="&#xf064;" horiz-adv-x="1488" d="M1417 1387v-1330q0 -23 -15 -40t-36 -17q-22 0 -37 17t-15 40v1330q0 23 15 40t37 17q21 0 36 -17t15 -40zM1289 796q-69 104 -143 150t-144 38.5t-142.5 -44t-144 -90.5t-142.5 -108t-143.5 -90.5t-142.5 -44t-144 38.5t-143 150v654q69 -104 143 -150t144 -38.5 t142.5 44t143.5 90.5t142.5 108t144 90.5t142.5 44t144 -38.5t143 -150v-654z" />
<glyph unicode="&#xf065;" horiz-adv-x="1398" d="M1044 1124q-145 0 -247 -102.5t-102 -247.5t102 -247.5t247 -102.5t247.5 102.5t102.5 247.5t-102.5 247.5t-247.5 102.5zM1045 484q-116 0 -198 82t-82 198t82 198t198 82q115 0 197 -82t82 -198t-81.5 -198t-197.5 -82zM699 791q0 -145 -102 -247t-247 -102t-247.5 102 t-102.5 247t102 247.5t248 102.5q145 0 247 -102.5t102 -247.5z" />
<glyph unicode="&#xf066;" horiz-adv-x="1519" d="M1517 1163h-1517v59q0 45 36.5 76.5t88.5 31.5h323q52 0 88.5 -31.5t36.5 -76.5l918 -9q16 -1 21 -5l5 -13v-32zM1517 240v853h-1517v-853h1517z" />
<glyph unicode="&#xf067;" horiz-adv-x="1521" d="M1508 1193h-1515v59q0 45 36 76.5t87 31.5h323q52 0 88.5 -32t36.5 -76l919 -9q16 -1 20 -5l5 -13v-32zM522 979q53 -82 32.5 -178.5t-102.5 -149.5t-178.5 -32.5t-149.5 102.5q-53 83 -32.5 179t103.5 149q82 53 178 32.5t149 -102.5zM512 1123h996v-853h-760l-211 326 q95 80 114 203.5t-49 230.5q-36 55 -90 93zM456 546l179 -276h-642v853h143q-110 -76 -137 -208t46 -246q66 -103 184 -137.5t227 14.5z" />
<glyph unicode="&#xf068;" horiz-adv-x="1560" d="M1555 1132h-1555v70q0 53 37.5 90.5t90.5 37.5h331q53 0 90.5 -37.5t37.5 -90.5l941 -10q17 -1 21 -6l6 -15v-39zM1491 843q0 68 -29 127.5t-80 100.5h174v-386q-35 66 -70 91l-2 2q7 29 7 65zM763 360q0 -73 32 -120h-795v831h394h623q-51 -41 -80.5 -100.5 t-29.5 -127.5q0 -32 8 -66v-1q-63 -49 -107.5 -190.5t-44.5 -225.5zM1440 722q44 -34 88 -154.5t44 -189.5q0 -21 -4.5 -38t-10.5 -30t-18.5 -22.5t-22.5 -15.5t-29 -10.5t-31.5 -6.5t-36 -3t-36.5 -1t-39 0.5t-39 0.5h-202q-17 0 -48 -1t-47.5 -1t-42 1.5t-40 5.5 t-31.5 12.5t-26 21.5t-15 33t-6 46q0 73 39 196t82 156q37 -61 99.5 -97.5t136.5 -36.5t136.5 36.5t99.5 97.5zM1414 853q0 88 -62 149.5t-149 61.5q-88 0 -149.5 -61.5t-61.5 -149.5q0 -87 61.5 -149t149.5 -62q87 0 149 62t62 149z" />
<glyph unicode="&#xf069;" horiz-adv-x="1541" d="M768 144q169 0 312.5 83.5t227 227t83.5 313.5q0 216 -135 386l-875 -875q170 -135 387 -135zM144 768q0 -217 135 -387l875 875q-168 135 -386 135q-170 0 -313.5 -83.5t-227 -227t-83.5 -312.5zM768 1535q156 0 298 -60.5t245 -163.5t163.5 -245t60.5 -298 t-60.5 -298.5t-163.5 -245t-245 -163.5t-298 -61q-209 0 -385.5 103t-279.5 279.5t-103 385.5q0 156 61 298t163.5 245t245 163.5t298.5 60.5z" />
<glyph unicode="&#xf06a;" horiz-adv-x="1548" d="M0 1526l772 -763l-772 -763v1526zM772 1535l773 -763l-773 -763v1526z" />
<glyph unicode="&#xf06b;" horiz-adv-x="1538" d="M1535 1535v-1535h-144v1535h144zM1392 768l-686 758v-1517zM706 768l-706 758v-1517z" />
<glyph unicode="&#xf06c;" horiz-adv-x="1347" d="M1085 0h-315v803h-322v-803h-314v803h-134v238h134v15q0 215 116 337q109 114 307 114q74 0 134 -25l-43 -238q-40 14 -78 14q-124 0 -124 -185v-32h324v41q0 100 32 194t96 155q108 104 278 104q85 0 167 -21l-12 -249q-51 15 -101 15q-74 0 -110.5 -51.5t-36.5 -134.5 v-53h202v-238h-200v-803z" />
<glyph unicode="&#xf06d;" d="M1031 504v527h-527v-527h527zM408 1127h719v-719h-719v719zM0 1214l1 -1h-1v1zM0 1535h321l-321 -321v321zM376 1271l-159 158l-110 -110l159 -159zM1214 1535l-1 -1v1h1zM1535 1535v-321l-321 321h321zM1271 1159l158 159l-110 110l-159 -159zM1535 321l-1 1h1v-1z M1535 0h-321l321 321v-321zM1159 264l159 -158l110 110l-159 159zM321 0l1 1v-1h-1zM0 0v321l321 -321h-321zM264 376l-158 -159l110 -110l159 159z" />
<glyph unicode="&#xf06e;" d="M269 159l-159 -159l-110 110l159 159zM375 55v321h-321zM52 375l2 1h-2v-1zM1376 269l159 -159l-110 -110l-159 159zM1480 375h-321v-321zM1161 52l-2 2v-2h2zM1266 1376l159 159l110 -110l-159 -159zM1160 1480v-321h321zM1483 1161l-2 -2h2v2zM159 1266l-159 159 l110 110l159 -159zM55 1160h321v321zM375 1483l1 -2v2h-1zM1127 1127h-719v-719h719v719zM1031 1031v-527h-527v527h527z" />
<glyph unicode="&#xf070;" horiz-adv-x="1538" d="M1175 667q29 108 0.5 213t-105.5 182.5t-184 106.5q-108 29 -213 0.5t-182 -105.5t-106 -185q-44 -163 40.5 -310t248.5 -191q107 -29 212 -0.5t182.5 105.5t106.5 184zM1466 726q42 -12 69 -43q-7 -85 -62 -225q-42 -11 -79 -1q-34 9 -72.5 -10.5t-63 -54t-35.5 -74.5 t9 -73q24 -43 23 -76q-28 -29 -96.5 -67t-115.5 -52q-30 17 -52 56q-22 38 -82 45.5t-115.5 -16.5t-67.5 -66q-12 -44 -38 -69q-41 0 -108.5 19t-120.5 41q-10 52 -2 81q10 36 -10.5 74.5t-55.5 62.5t-75.5 34.5t-70.5 -8.5q-42 -23 -81 -18q-29 33 -66 98t-48 101 q12 36 56 61t58.5 82.5t-10.5 112.5t-83 71q-21 5 -43.5 19.5t-27.5 25.5q2 36 21 109.5t35 109.5q40 18 87 5q43 -12 90.5 26t70 94.5t2.5 92.5q-5 9 -8.5 20.5t-5 18.5t-3 22.5t-1.5 18.5q33 28 98.5 65.5t101.5 48.5q37 -16 59 -55q20 -36 80 -45.5t116.5 12.5t68.5 66 q14 48 43 69q55 -5 121.5 -23.5t101.5 -36.5q13 -42 3 -81q-11 -42 26 -90t93 -71t93 -1q32 20 76 18q31 -38 67 -99t48 -106q-17 -34 -52 -55q-34 -19 -42 -79t14 -117t62 -68z" />
<glyph unicode="&#xf071;" horiz-adv-x="1538" d="M1395 621q5 20 -42.5 47t-97.5 55t-50 49q0 17 31 38t67.5 36.5t65.5 35.5t25 36q-43 179 -174 308.5t-310 169.5q-15 3 -34 -24.5t-34.5 -62.5t-35 -65t-35.5 -30q-17 0 -38 30t-38 65t-37 62.5t-36 23.5q-180 -42 -311.5 -174t-171.5 -312q-3 -15 27 -33.5t68 -33 t70 -33.5t32 -35q0 -22 -51.5 -50.5t-100 -56.5t-43.5 -48q42 -177 171.5 -306.5t306.5 -171.5q16 -4 36.5 25t38 66t39 68t38.5 31q16 0 36 -31.5t35.5 -68.5t34.5 -66t34 -25q180 40 311 170.5t173 310.5zM768 1535q156 0 298 -60.5t245 -163.5t163.5 -245t60.5 -298 t-60.5 -298.5t-163.5 -245t-245 -163.5t-298 -61q-209 0 -385.5 103t-279.5 279.5t-103 385.5q0 156 61 298t163.5 245t245 163.5t298.5 60.5z" />
<glyph unicode="&#xf072;" horiz-adv-x="1573" d="M706 690l-706 93l1568 752l-742 -1535z" />
<glyph unicode="&#xf073;" horiz-adv-x="1520" d="M589 783l50 -50l-430 -431l-51 50zM1375 323l-50 -51l-431 431l51 50zM1440 321v-71h-1356v71h1356zM1415 1294v-71h-1338v71h1338zM0 283v977q0 32 91 32h83q72 0 96 -26l432 -485l59 -94l60 85l432 494q23 26 96 26h75q92 0 92 -32v-977q0 -32 -92 -32h-16 q-91 0 -91 32v796l-460 -518q-17 -19 -50 -19h-92q-33 0 -50 19l-466 527v-805q0 -32 -92 -32h-16q-91 0 -91 32z" />
<glyph unicode="&#xf074;" horiz-adv-x="953" d="M952 1517v-109l-189 7l-9 -12q29 -31 50 -91q18 -59 18 -125q0 -176 -103 -272q-102 -96 -292 -96q-83 0 -146 23q-78 -63 -78 -123q0 -40 15 -61q15 -20 49 -29q31 -8 104 -8h246q109 0 176 -36q70 -36 98 -96q29 -58 29 -140q0 -102 -55 -181t-159 -124 q-106 -44 -244 -44q-107 0 -188 13q-88 14 -147 44q-61 31 -94 81t-33 126q0 68 43 124q44 56 122 97q-50 22 -76 61q-28 42 -28 94q0 62 33 113q34 53 116 117q-75 48 -112 124q-39 76 -39 177q0 92 29 161q30 69 81 114q52 45 122 67q69 22 153 22q74 0 146 -18h362z M268 466q-52 -40 -78 -87q-26 -45 -26 -104q0 -98 73 -144q74 -46 223 -46q91 0 158 26q67 27 101 75q35 49 35 113q0 29 -8 59q-6 29 -27 52q-19 22 -56 36q-36 13 -97 13h-152q-73 0 -146 7zM242 1188q0 -133 53 -209q51 -73 150 -73q51 0 89 21q37 21 60 58q22 35 33 85 t11 101q0 97 -26 159q-26 63 -69 93t-101 30q-96 0 -149 -68q-51 -67 -51 -197z" />
<glyph unicode="&#xf075;" horiz-adv-x="1476" d="M0 978v126h186v187h127v-187h187v-126h-187v-186h-127v186h-186zM1468 1517v-109l-189 7l-9 -12q32 -33 50 -91q19 -62 19 -125q0 -175 -103 -272q-104 -96 -292 -96q-85 0 -146 23q-78 -63 -78 -123q0 -40 15 -61q16 -20 49 -29q31 -8 104 -8h245q108 0 177 -36 q68 -36 97 -96q30 -60 30 -140q0 -101 -56 -181q-53 -78 -159 -124q-106 -44 -243 -44q-107 0 -189 13q-89 14 -146 44q-61 30 -94 81q-34 49 -34 126q0 66 43 124q44 56 122 97q-48 21 -76 61q-27 40 -27 94q0 61 32 113q32 50 116 117q-73 46 -112 124q-38 75 -38 177 q0 96 29 161q29 69 81 114q50 44 122 67q69 22 152 22q74 0 146 -18h362zM784 466q-54 -43 -78 -87q-26 -47 -26 -104q0 -98 73 -144q75 -46 223 -46q91 0 158 26q67 27 101 75q35 49 35 113q0 32 -7 59q-8 30 -27 52q-21 22 -57 36q-36 13 -96 13h-153q-71 0 -146 7z M759 1188q0 -135 52 -209q52 -73 150 -73q53 0 89 21q38 21 60 58q24 38 34 85q10 46 10 101q0 96 -25 159q-26 63 -70 93q-43 30 -101 30q-97 0 -148 -68q-51 -67 -51 -197z" />
<glyph unicode="&#xf076;" horiz-adv-x="1536" d="M1535 959v-383h-384v383h384zM1535 384v-384h-384v384h384zM1535 1535v-384h-384v384h384zM959 959v-383h-383v383h383zM959 384v-384h-383v384h383zM959 1535v-384h-383v384h383zM384 959v-383h-384v383h384zM384 384v-384h-384v384h384zM384 1535v-384h-384v384h384z " />
<glyph unicode="&#xf077;" d="M74 0l-74 154l1168 615l-1168 612l74 154l1461 -766z" />
<glyph unicode="&#xf078;" horiz-adv-x="1538" d="M549 345l-90 157l422 274l-428 240l81 162l697 -391zM767 0q-154 0 -294 58t-249 167q-110 110 -167 253.5t-57 289t57 289t167 253.5q109 109 249 167t294 58t294 -58t249 -167t167 -248.5t58 -293.5t-58 -294t-167 -249t-249 -167t-294 -58zM767 1379 q-122 0 -233.5 -46.5t-198.5 -132.5q-117 -118 -158.5 -275t0 -314.5t158.5 -274.5q87 -87 198.5 -133t233.5 -46q123 0 234.5 46t197.5 133q87 86 133 197.5t46 234.5q0 122 -46 233.5t-133 198.5q-86 86 -198 132.5t-234 46.5z" />
<glyph unicode="&#xf079;" d="M1326 0l-969 18l1 37q2 62 -6.5 110t-22.5 82t-45.5 69t-60 59t-81.5 63q-109 81 -136 264q-14 109 8 211t77 174q17 22 39.5 29.5t38.5 -1.5q5 30 26 120q19 80 24 115q8 50 60 79.5t134 29.5q92 0 154 -36q25 52 63 81.5t81 29.5h22q11 1 35 1q109 0 131 -61 q12 -32 24 -91q82 129 166 111q53 -11 99.5 -49.5t73.5 -92.5q30 19 66 19q52 0 103 -34.5t72 -76.5q20 -43 28 -100t2.5 -132.5t-9.5 -112.5t-15 -113l-9 -60q-12 -79 -17.5 -114t-22.5 -95.5t-39 -103.5q-12 -24 -36 -66q-22 -40 -33 -61t-26 -57t-19.5 -63t-4 -63 t10.5 -72zM431 90l802 -15q-9 61 4.5 123.5t31 99.5t52.5 100q24 42 35 64q20 39 34.5 93.5t21 90.5t16.5 106l9 61q9 64 13.5 101.5t9.5 106t-0.5 121t-22.5 87.5q-12 25 -45.5 47t-63.5 22q-31 0 -47 -31l-45 -87l-23 96q-13 53 -52.5 95t-86.5 51q-53 -1 -129 -150 l-18 -34l-34 20q-15 9 -22 29t-17 68q-13 65 -23 94q-13 13 -63 13q-22 0 -32 -1h-25q-28 0 -53.5 -31t-39.5 -79l-21 -76l-45 65q-14 20 -53 33t-86 13q-49 0 -83.5 -14t-38.5 -34q-4 -25 -25 -119q-26 -110 -31 -164q-2 -15 -3.5 -23.5t-5.5 -21t-13 -18.5t-22 -6 q-28 0 -44 40q0 1 -1.5 4l-2.5 5q-43 -61 -60 -147.5t-4 -175.5q10 -72 37.5 -128.5t68.5 -86.5q53 -39 83.5 -64.5t65.5 -63.5t53 -75t30.5 -89t13.5 -115z" />
<glyph unicode="&#xf07a;" horiz-adv-x="1249" d="M1081 0l-728 13l1 34q2 54 -5.5 92t-31 69.5t-47.5 52.5t-72 56q-60 43 -115 185.5t-75 283.5q-24 189 31 262q13 18 35 18q30 0 56.5 -39.5t77.5 -148.5q11 -22 16 -34q1 4 3.5 13t4.5 13q20 74 20 106q-1 248 18.5 352t52.5 139q26 26 62 26q21 0 43 -8q15 -5 24.5 -21 t24.5 -78.5t41 -199.5q25 209 43 274t48 72q66 15 113 -33q75 -79 79 -337q47 159 75.5 217.5t62.5 58.5l9 -1q12 -2 17 -3q50 -6 78 -42q10 -13 12 -56t-3 -212q21 57 29.5 71t18.5 19q23 10 40 10q18 0 32.5 -7t26 -22t16.5 -24t13 -25q14 -30 17.5 -99.5t-1 -146 t-12.5 -153t-14 -121.5t-7 -51l-5 -34q-9 -58 -13 -83t-16.5 -69t-29.5 -76q-9 -17 -27 -49q-16 -27 -24 -42.5t-18.5 -40.5t-14 -44t-3 -44t7.5 -50zM420 79l577 -11q-5 43 6 88.5t23.5 71.5t37.5 70q2 5 11 21t14 25q30 57 52 206l5 35q13 89 23 194t12.5 207t-12.5 130 q-18 41 -29 41q-3 0 -4 -1q-21 -45 -63 -164q-27 -71 -29 -75l-40 -76l-21 84q-3 12 2 167q8 224 3 264q-8 9 -32 12q-2 0 -5.5 1t-4.5 1q-27 -37 -103 -301q-36 -130 -46 -149l-17 -30l-29 17q-14 9 -16.5 23t-0.5 71q11 378 -59 451q-17 19 -42 16q-23 -48 -56 -345 q-16 -128 -20 -144l-19 -67l-40 57q-8 13 -37 163q-43 240 -63 292q-19 5 -28 -4q-54 -56 -53 -444q1 -41 -22 -124q-17 -56 -19 -86q-2 -18 -11.5 -28t-15.5 -11.5t-11 -1.5q-22 0 -37.5 23.5t-51.5 101.5q-47 103 -70 136q-24 -63 -6 -190q19 -136 70.5 -265.5 t92.5 -159.5q49 -35 76 -58.5t54.5 -58t40 -77t13.5 -98.5z" />
<glyph unicode="&#xf07b;" horiz-adv-x="1012" d="M168 615q17 2 35 -6.5t27 -18.5l10 -9q1 0 3.5 1t7 6.5t7.5 14.5t2.5 28t-5.5 44q-8 68 -7.5 234.5t6.5 340.5l5 174q6 52 20.5 79.5t31 30t31.5 -2.5t25 -15l10 -9q24 -10 34.5 -93.5t8.5 -161.5l-1 -79q8 -25 13 -89.5t6 -116.5v-52q15 42 42.5 61.5t55.5 17.5 t53.5 -9.5t42.5 -18.5l16 -10q52 5 88 0.5t57.5 -15t33 -21.5t15.5 -20l4 -8q31 2 57.5 -9.5t42 -30t26.5 -37.5t15 -33l4 -13q16 -76 16.5 -160.5t-10.5 -151t-24 -122.5t-24 -87l-11 -30l-19 -157q-73 -36 -156 -50.5t-149 -10t-122 14t-87 20.5l-31 11q7 38 0 76 t-22.5 65.5t-32 50t-29.5 33.5l-12 11l-236 258q7 42 -3.5 97t-24.5 89l-14 35q55 14 89 5t50.5 -33.5t23 -50.5t5.5 -46v-21z" />
<glyph unicode="&#xf07c;" d="M763 0l-100 157q-152 238 -392 462q-147 136 -209 253q-62 116 -62 258q0 165 118 285t282 120q207 0 370 -267q173 261 380 261q166 0 276 -120q109 -116 109 -298q0 -119 -50 -237q-50 -117 -134 -190l-103 -89q-136 -118 -267 -306l-70 -100q-15 -21 -117 -150z" />
<glyph unicode="&#xf07d;" horiz-adv-x="802" d="M491 507h-293l-2 57q-6 180 130 343q65 79 96.5 130.5t31.5 101.5q0 60 -40.5 95.5t-120.5 36.5q-54 1 -114.5 -17.5t-103.5 -48.5l-75 240q160 90 368 90q106 0 189 -27.5t133.5 -76t76.5 -109t26 -130.5q0 -56 -14.5 -107t-45 -98.5t-52.5 -75t-64 -73.5 q-9 -11 -14 -16q-112 -128 -112 -276v-39zM141 200q0 89 55 145t141 56q89 0 143 -55.5t55 -145.5q1 -87 -53.5 -143.5t-144.5 -56.5q-87 0 -141.5 57t-54.5 143z" />
<glyph unicode="&#xf07e;" d="M819 521h-112v35q0 70 19 118q15 39 46 75q22 29 84 81q61 55 78 85q18 31 18 70q0 66 -53 119q-53 51 -130 51q-74 0 -124 -47t-65 -145l-119 14q15 132 95 203q82 71 211 71q138 0 222 -76q83 -75 83 -183q0 -61 -29 -114q-29 -51 -114 -127q-58 -52 -74 -75 q-19 -25 -26 -55q-8 -28 -10 -100zM833 288h-133v132h133v-132zM768 0q-209 0 -385.5 103t-279.5 279.5t-103 385.5q0 208 103 384.5t279.5 279.5t385.5 103q208 0 384.5 -103t279.5 -279.5t103 -384.5q0 -209 -103 -385.5t-279.5 -279.5t-384.5 -103zM768 1401 q-172 0 -317.5 -85t-230.5 -230.5t-85 -317.5t85 -317.5t230.5 -230.5t317.5 -85t317.5 85t230.5 230.5t85 317.5t-85 317.5t-230.5 230.5t-317.5 85z" />
<glyph unicode="&#xf080;" horiz-adv-x="1542" d="M1535 930h-1535v143h1535v-143zM1535 447h-1535v144h1535v-144zM1535 0h-1535v144h1535v-144zM1535 1391h-1535v144h1535v-144z" />
<glyph unicode="&#xf081;" horiz-adv-x="1303" d="M762 84h94q-35 -62 -97 -62h-148q-48 0 -81.5 40t-33.5 97q0 56 33.5 96t81.5 40h148q63 0 97 -62h-94q-22 0 -38 -12h-84q-28 0 -48.5 -18t-20.5 -44t20 -44t49 -18h84q18 -13 38 -13zM1038 159q0 16 -9.5 26.5t-22.5 10.5h-232q-14 0 -23 -10.5t-9 -26.5q0 -15 9.5 -26 t22.5 -11h232q13 0 22.5 11t9.5 26zM1038 233h-94q33 62 96 62h149q47 0 81 -40t34 -96q0 -57 -34 -97t-81 -40h-149q-62 0 -96 62h93q21 0 39 13h83q29 0 49 18t20 44t-20.5 44t-48.5 18h-83q-16 12 -38 12zM852 366v143h-398v-509h-321v900h1040v-534h-321zM1299 896 h-1299l649 639zM1036 1176v181h-121v-66z" />
<glyph unicode="&#xf082;" horiz-adv-x="1548" d="M359 8q-36 0 -61 20.5t-30.5 49.5t0 57.5t30.5 48.5t61 20q552 -6 832 -8q36 -1 61 -21t30.5 -49t0 -57.5t-30.5 -48.5t-61 -20q-139 1 -416 4t-416 4zM259 686q0 45 31 70t67.5 25t67.5 -25t31 -70v-590q0 -44 -31 -69.5t-67.5 -25.5t-67.5 25.5t-31 69.5v590zM1292 99 q0 -44 -31 -69.5t-67.5 -25.5t-67.5 25.5t-31 69.5v584q0 45 31 70t67.5 25t67.5 -25t31 -70v-584zM170 689q-27 -25 -59 -27.5t-56.5 13.5t-41 40.5t-13 55.5t29.5 56l723 678q27 25 59 27.5t57 -13.5t41 -40.5t12.5 -55.5t-29.5 -56zM745 1367q-41 43 -22 96.5t67 66.5 t94 -25q420 -438 630 -658q25 -26 28 -58t-13.5 -56.5t-41 -40.5t-56 -12.5t-56.5 29.5q-105 110 -315 329t-315 329zM1298 1053q0 -45 -31 -70t-67.5 -25t-67.5 25t-31 70v220q0 45 31 70t67.5 25t67.5 -25t31 -70v-220z" />
<glyph unicode="&#xf083;" horiz-adv-x="1252" d="M198 1171q12 -6 32.5 -16t74.5 -41t98.5 -61.5t88.5 -72t60 -76.5t33.5 -48t30.5 -6.5t24 18.5t17 24l6 12q12 11 32 28.5t74.5 63t101.5 80.5t97.5 64t77.5 30l-328 2zM162 133h892q0 1 0.5 3t0.5 3q0 65 -60 120.5t-162.5 87.5t-224.5 32q-121 0 -223.5 -32 t-162.5 -87.5t-60 -120.5v-6zM1218 0h-1187l-7 42q-9 56 -16.5 121t-5.5 169.5t28 149.5q17 30 54 60.5t68.5 50t89.5 52.5q149 85 173 124q5 9 5 33t-5 34q-22 35 -168 108q-63 32 -94 49.5t-69.5 48t-54.5 61.5q-21 40 -23 132t4.5 152.5t13.5 105.5l6 42h1187l8 -41 q51 -306 -7 -398q-14 -22 -35.5 -41.5t-56.5 -40.5t-57 -32.5t-70 -35.5q-51 -25 -75 -37.5t-57 -34.5t-44 -39q-5 -9 -4.5 -34.5t5.5 -35.5q24 -40 174 -120q64 -35 96 -54.5t71 -52t55 -64.5q23 -45 24.5 -147.5t-5 -166t-14.5 -117.5zM120 99h1008q13 105 14 194t-15 137 q-7 15 -24 30.5t-48.5 35t-49 29.5t-58.5 33q-62 35 -90.5 51.5t-66.5 47t-55 58.5q-20 32 -19.5 87t20.5 86q18 28 56.5 56.5t68.5 44.5t91 46q153 74 177 113q16 32 15 111.5t-15 176.5h-1009q-12 -96 -12.5 -175.5t13.5 -112.5q9 -18 41.5 -40.5t56 -35.5t76.5 -40 q57 -29 87.5 -45.5t67 -44t53.5 -55.5q19 -31 19 -84.5t-19 -84.5q-25 -40 -74 -75t-134 -83q-51 -29 -75 -44t-56.5 -39.5t-43.5 -43.5q-13 -21 -15.5 -79t2 -123t13.5 -132z" />
<glyph unicode="&#xf084;" horiz-adv-x="1395" d="M837 304v252h-389v-494h-314v874h1017v-632h-314zM1269 914h-1269l635 621zM1221 87v138h-629v-138h629zM1232 0v311l159 -155zM1012 1188v174h-118v-59z" />
<glyph unicode="&#xf085;" horiz-adv-x="434" d="M432 96v-96h-432v96h432zM432 1535v-96h-432v96h432zM312 1535v-1535h-192v1535h192z" />
<glyph unicode="&#xf086;" d="M1425 110v1315h-1315v-1315h1315zM0 1535h1535v-1535h-1535v1535zM104 103l206 486h74l187 273l119 -174h50l215 -316l232 339l254 -371v-237h-1337zM623 1156q0 101 -71.5 173t-172.5 72t-173 -72t-72 -173t72 -172.5t173 -71.5t172.5 71.5t71.5 172.5z" />
<glyph unicode="&#xf087;" horiz-adv-x="1417" d="M1302 1422l113 -113v-1309h-1247v574h96v-478h1055v1107l-240 -2v238h-815v-488h-96v584h1019zM0 889v-233h735v233h-735zM759 480v584l292 -292z" />
<glyph unicode="&#xf088;" horiz-adv-x="1542" d="M686 768l-214 214l-1 -2v-425l1 -2zM477 864v-192h-477v192h477zM1535 714v-192h-477v192h477zM1535 1127v-192h-767v192h767zM1535 192v-192h-1535v192h1535zM1535 1535v-192h-1535v192h1535z" />
<glyph unicode="&#xf089;" horiz-adv-x="937" d="M865 468l74 -32q-126 -163 -273.5 -277t-237.5 -145q-38 -15 -71.5 -13.5t-58.5 17.5t-38 62t-10 119l21 513q2 46 -3 62t-21 10q-22 -8 -74.5 -49t-103.5 -89l-69 39q144 159 293.5 274.5t243.5 146.5q74 25 108 -23.5t27 -155.5l-32 -535q-3 -47 7.5 -64.5t29.5 -11.5 q24 8 77.5 50.5t110.5 101.5zM646 1459q21 -63 -37 -135.5t-165 -107.5q-90 -30 -150.5 -14t-78.5 75q-18 57 32.5 128.5t166.5 110.5q96 29 155 12t77 -69z" />
<glyph unicode="&#xf08a;" d="M1010 553l47 -20q-80 -105 -174.5 -178t-153.5 -93q-55 -18 -86 5.5t-28 113.5l14 329q1 29 -2 39.5t-14 6.5q-32 -12 -114 -88l-44 24q93 102 188.5 176t156.5 95q47 15 69 -16t17 -99l-20 -343q-1 -21 1.5 -33t8 -15.5t13.5 -0.5q40 13 121 97zM870 1188 q13 -40 -24.5 -86t-105.5 -69q-58 -19 -96.5 -9t-50.5 48q-11 36 21.5 82t106.5 71q61 19 99 8t50 -45zM767 0q-154 0 -294 58t-249 167q-110 110 -167 253.5t-57 289t57 289t167 253.5q109 109 249 167t294 58t294 -58t249 -167t167 -248.5t58 -293.5t-58 -294t-167 -249 t-249 -167t-294 -58zM767 1379q-122 0 -233.5 -46.5t-198.5 -132.5q-117 -118 -158.5 -275t0 -314.5t158.5 -274.5q87 -87 198.5 -133t233.5 -46q123 0 234.5 46t197.5 133q87 86 133 197.5t46 234.5q0 122 -46 233.5t-133 198.5q-86 86 -198 132.5t-234 46.5z" />
<glyph unicode="&#xf08b;" horiz-adv-x="1007" d="M917 825v616h-832v-616h832zM501 89q127 0 216.5 89.5t89.5 216.5t-89.5 216.5t-216.5 89.5t-216.5 -89.5t-89.5 -216.5t89.5 -216.5t216.5 -89.5zM902 1535q41 0 70.5 -31.5t29.5 -75.5v-1321q0 -44 -29.5 -75.5t-70.5 -31.5h-803q-41 0 -70 31.5t-29 75.5v1321 q0 44 29 75.5t70 31.5h803zM609 387q0 45 -32 76.5t-76 31.5q-45 0 -76.5 -31.5t-31.5 -76.5q0 -44 31.5 -76t76.5 -32q44 0 76 32t32 76z" />
<glyph unicode="&#xf08c;" horiz-adv-x="1121" d="M296 252l287 1042q41 150 -64 150h-105q-13 0 -18 4t-5 15l14 59q0 13 27 13q7 0 53.5 -1.5t123 -3.5t156.5 -2q86 0 159 2t114 3.5t50 1.5q36 0 27 -27l-13 -45q0 -19 -23 -19h-59q-77 0 -117.5 -30t-65.5 -122l-282 -1047q-21 -81 3.5 -117.5t96.5 -36.5h82 q22 0 14 -23l-4 -45q-3 -11 -4.5 -14.5t-7 -6t-16.5 -2.5q-6 0 -50 2t-128 3.5t-186 1.5q-84 0 -161.5 -1.5t-123 -3.5t-52.5 -2q-18 0 -18 23l14 50q0 18 18 18h86q49 0 78.5 7.5t48.5 31t27.5 46.5t23.5 76z" />
<glyph unicode="&#xf08d;" horiz-adv-x="1533" d="M768 1535l767 -767l-767 -768l-768 768z" />
<glyph unicode="&#xf08e;" horiz-adv-x="1639" d="M817 1535v-377q0 -7 36.5 0.5t96 -5.5t135 -23t153.5 -51t152.5 -91t130.5 -142.5t88 -204.5t25.5 -278t-57.5 -363v68q-10 220 -129 361q-194 228 -628 165v-392l-820 707z" />
<glyph unicode="&#xf090;" horiz-adv-x="1531" d="M902 1242v290l627 -481l-629 -543v301q-134 18 -230.5 4t-160.5 -53.5t-103 -90.5t-57.5 -106.5t-25.5 -102t-6 -76.5l1 -30q-49 200 -44 345.5t53.5 242.5t118.5 157t150 90t148 41.5t113 11.5h45zM1367 652h108v-652h-1475v1535h596v-112h-488v-1311h1259v540z" />
<glyph unicode="&#xf091;" horiz-adv-x="1555" d="M172 1215q26 -38 71.5 -47t83.5 17t47 71.5t-17 83.5q-25 38 -71 47t-84 -17t-47 -71.5t17 -83.5zM679 1372q86 -127 56.5 -278t-157.5 -237q-84 -57 -182.5 -63.5t-187 36.5t-145.5 127q-85 128 -56 278.5t156 236.5q84 57 182.5 63.5t187.5 -36.5t146 -127zM705 964 l-87 -102l-177 -76l125 -22l42 -74l68 -4l239 -240l93 -6l24 -110l140 -140l101 -5l28 -94l70 6l15 -96l145 22q21 32 20.5 66.5t-11.5 61.5l-11 27l-770 769l-17 112z" />
<glyph unicode="&#xf092;" horiz-adv-x="1598" d="M223 365h-223v1170h1207v-216h-984v-954zM1599 0v1170h-1207v-1170h1207z" />
<glyph unicode="&#xf093;" horiz-adv-x="1556" d="M1552 506v550h-841v-550h841zM691 1472v-1382l-691 691z" />
<glyph unicode="&#xf094;" horiz-adv-x="1542" d="M1535 0l-1535 768l1535 767v-1535z" />
<glyph unicode="&#xf095;" horiz-adv-x="855" d="M128 772l643 -579v1158zM851 1535v-1535l-851 768z" />
<glyph unicode="&#xf096;" horiz-adv-x="964" d="M682 81v295h-392v-295q148 -81 200 -81q22 0 70 20t85 40zM744 678q64 55 99.5 146.5t35.5 190.5q0 171 -117 291.5t-282 120.5t-282 -120.5t-117 -291.5q0 -104 41 -198.5t113 -149.5q28 -21 89 -140h329q63 126 91 151zM480 1535q130 0 240.5 -66.5t174.5 -180.5 t64 -249q0 -119 -42 -229t-119 -176q-32 -28 -110 -182h-395q-27 51 -40 75t-32.5 53.5t-34.5 40.5q-88 66 -137 179.5t-49 238.5q0 135 64.5 249t175 180.5t240.5 66.5zM552 520l93 336h-301l80 -336h128zM292 924h411l-127 -459h-174z" />
<glyph unicode="&#xf097;" horiz-adv-x="768" d="M0 677l75 858h646l-215 -575l262 -17l-606 -943l82 666z" />
<glyph unicode="&#xf098;" horiz-adv-x="1536" d="M1535 1401l-1401 -1401l-134 134l1401 1401z" />
<glyph unicode="&#xf099;" horiz-adv-x="1020" d="M336 642h119q-20 -40 -52 -64t-70 -24h-188q-60 0 -102.5 57t-42.5 137q0 81 42.5 138t102.5 57h188q38 0 70 -24t52 -65h-119q-26 0 -48 -17h-105q-36 0 -61.5 -26t-25.5 -63q0 -36 25.5 -62t61.5 -26h105q23 -18 48 -18zM685 749q0 22 -12 37.5t-28 15.5h-294 q-16 0 -28 -15.5t-12 -37.5t12 -37.5t28 -15.5h294q16 0 28 15.5t12 37.5zM684 854h-118q20 41 51.5 65t69.5 24h188q61 0 103.5 -57t42.5 -138q0 -80 -42.5 -137t-103.5 -57h-188q-38 0 -69.5 23.5t-51.5 64.5h118q26 0 49 18h105q36 0 61.5 26t25.5 62q0 37 -25.5 63 t-61.5 26h-105q-22 17 -49 17z" />
<glyph unicode="&#xf09a;" horiz-adv-x="1547" d="M578 0v656q0 134 -8 308h274l15 -134h6q40 60 120 107.5t194 47.5q164 0 264 -105.5t100 -309.5v-570h-316v534q0 98 -39 153.5t-121 55.5q-60 0 -101 -32.5t-61 -79.5q-11 -28 -11 -75v-556h-316zM335 1232q1 -64 -46 -107t-125 -43q-73 0 -118.5 43t-45.5 107 q0 65 46.5 107.5t121.5 42.5t120.5 -42.5t46.5 -107.5zM324 0h-316v964h316v-964z" />
<glyph unicode="&#xf09b;" horiz-adv-x="1493" d="M357 1313q-39 20 -76 47q-8 6 -13 9q201 166 461 166q148 0 283 -58t232.5 -156.5t155.5 -235t58 -286.5q0 -184 -86 -345q-33 14 -60 14h-177q-70 0 -120 -58l-4 -2l12 41l43 61l-70 99l-112 4l-104 -53l-49 -33l-61 19q10 15 25 39.5t40 77.5t25 80q0 16 23 33.5 t53 30.5t58.5 28.5t39 29t-4.5 31.5q-21 21 -26.5 33t-2.5 19.5t17 31t24 50.5q71 188 -142 222q-83 12 -121 8.5t-44 -14.5l-6 -10q-1 -3 -3.5 -7t-7.5 -13t-9.5 -14.5t-6.5 -3.5l-37 55q3 3 7 8t8 18.5t0 25.5t-26 26t-62 23q-129 26 -134 2v-43zM804 88h118 q-19 -40 -51 -64t-70 -24h-188q-60 0 -102.5 57t-42.5 137q0 81 42.5 138t102.5 57h188q38 0 70 -24t51 -65h-118q-28 0 -48 -17h-105q-37 0 -62.5 -26t-25.5 -63q0 -36 25.5 -62t62.5 -26h105q21 -18 48 -18zM1152 195q0 22 -12 37.5t-28 15.5h-293q-16 0 -28 -15.5 t-12 -37.5t12 -37.5t28 -15.5h293q16 0 28 15.5t12 37.5zM1152 300h-119q20 41 52 65t70 24h188q60 0 102.5 -57t42.5 -138q0 -80 -42.5 -137t-102.5 -57h-188q-38 0 -70 24t-52 64h119q25 0 48 18h105q36 0 62 26t26 62q0 37 -26 63t-62 26h-105q-22 17 -48 17zM412 235 q0 -55 23 -109q-195 87 -315 269t-120 404q0 158 62.5 298t173.5 243q78 -60 64 -132q-20 -86 -12 -154t44 -85q36 -16 76.5 -58.5t45.5 -66.5q2 -9 9 -13l10.5 -6t-2.5 -18.5t-25 -51.5q-25 -44 -26.5 -113t8 -115.5t16.5 -57.5q6 -9 55 -38q-40 -31 -63.5 -83t-23.5 -113z " />
<glyph unicode="&#xf09c;" horiz-adv-x="1448" d="M1446 260v-260h-1446v260h1446zM1446 898v-260h-1446v260h1446zM1446 1535v-260h-1446v260h1446z" />
<glyph unicode="&#xf09d;" horiz-adv-x="1058" d="M616 551q51 41 51 106q0 58 -40.5 98.5t-98.5 40.5q-57 0 -98 -40.5t-41 -98.5q0 -64 52 -106l-1 -2v-89q0 -37 26 -62.5t62 -25.5q37 0 62.5 25.5t25.5 62.5v89v2zM0 930h1056v-930h-1056v930zM251 981h-140q-17 59 -17 120q0 180 127 307t307 127t307 -127t127 -307 q0 -61 -17 -120h-140q25 58 25 120q0 125 -88.5 213.5t-213.5 88.5t-213 -88.5t-88 -213.5q0 -61 24 -120z" />
<glyph unicode="&#xf09e;" horiz-adv-x="1652" d="M1204 555q51 43 51 108q0 58 -41 99t-99 41t-99 -41t-41 -99q0 -64 52 -108v-1v-91q0 -36 25.5 -62t62.5 -26t63 26t26 62v91v1zM583 938h1065v-938h-1065v938zM159 977h-142q-17 59 -17 120q0 181 128 309.5t310 128.5q181 0 309 -128.5t128 -309.5q0 -61 -17 -120h-141 q25 58 25 120q0 126 -89 215.5t-215 89.5t-215 -89.5t-89 -215.5q0 -62 25 -120z" />
<glyph unicode="&#xf0a0;" horiz-adv-x="1696" d="M405 143l202 1073l-330 -41l-277 -1175zM898 0l24 1120l-264 91l-192 -1080zM1439 374q2 4 19.5 40t41 85t46.5 98l143 -481l-726 -116l14 1092l52 6q16 -76 61.5 -192t105 -238t91 -183t58.5 -112l48 -88zM1381 1108q62 0 106.5 44t44.5 107q0 62 -44.5 106t-106.5 44 t-106 -44t-44 -106q0 -63 44 -107t106 -44zM1381 1535q127 0 217.5 -91.5t90.5 -220.5q0 -77 -74.5 -267t-148.5 -342l-74 -152q-13 24 -34.5 64.5t-76.5 151.5t-97 204.5t-76.5 193t-34.5 147.5q0 129 90.5 220.5t217.5 91.5z" />
<glyph unicode="&#xf0a1;" horiz-adv-x="810" d="M446 279v-279h-84v279h84zM73 84h662v-84h-662v84zM808 1054h-82v-333q0 -134 -94.5 -228.5t-227.5 -94.5q-134 0 -228.5 95t-94.5 228v333h-81v-348q0 -167 118.5 -285.5t285.5 -118.5t285.5 118.5t118.5 285.5v348zM659 1267v-508q0 -111 -74.5 -189.5t-180.5 -78.5 t-180.5 78.5t-74.5 189.5v508q0 111 74.5 189.5t180.5 78.5t180.5 -78.5t74.5 -189.5z" />
<glyph unicode="&#xf0a2;" horiz-adv-x="1518" d="M1520 984v-456h-1520v456h1520z" />
<glyph unicode="&#xf0a3;" horiz-adv-x="1526" d="M90 1239h1434v-830h-92v723h-1342v107zM1298 512v227h-4q-136 0 -231.5 76.5t-95.5 184.5v2h-534q-1 -108 -96 -184t-230 -76q-2 0 -6 0.5t-5 0.5v-228q3 1 8 1q136 0 231.5 -76.5t95.5 -184.5v-5h534v1q0 109 95.5 185.5t231.5 76.5q1 0 3 -0.5t3 -0.5zM0 1071h1376 v-891h-1376v891zM680 313h77v79q65 10 101.5 49t36.5 92q0 52 -30 85.5t-99 58.5q-52 18 -73.5 32.5t-21.5 32.5q0 19 16 31.5t51 12.5q53 0 113 -27l23 87q-54 24 -114 25v68h-76v-73q-63 -12 -97.5 -48.5t-34.5 -88.5t36 -85t104 -55q45 -14 64.5 -29.5t19.5 -37.5 t-21 -35t-55 -13q-63 0 -129 34l-24 -90q53 -28 133 -33v-72z" />
<glyph unicode="&#xf0a4;" horiz-adv-x="1544" d="M1535 234q0 -97 -68.5 -165.5t-165.5 -68.5t-165.5 68.5t-68.5 165.5t68.5 165.5t165.5 68.5t165.5 -68.5t68.5 -165.5zM468 352q0 -97 -68.5 -165.5t-165.5 -68.5t-165.5 68.5t-68.5 165.5t68.5 165.5t165.5 68.5t165.5 -68.5t68.5 -165.5zM1535 1166v-961 q-45 -4 -108 -2v782q-107 18 -240 63t-239.5 91t-239.5 91t-240 63v-906q-63 2 -108 -2v1150q108 -9 232.5 -47t240 -88t230.5 -99.5t239.5 -87.5t232.5 -47z" />
<glyph unicode="&#xf0a5;" horiz-adv-x="1345" d="M400 34l2 532l-375 -3zM0 1535h1343v-1535h-950l-392 562l-1 -1v974z" />
<glyph unicode="&#xf0a6;" d="M768 174q161 0 297.5 79.5t216 216.5t79.5 298t-79.5 297.5t-216 216t-297.5 79.5t-298 -79.5t-216.5 -216t-79.5 -297.5t79.5 -298t216.5 -216.5t298 -79.5zM768 1535q156 0 298 -60.5t245 -163.5t163.5 -245t60.5 -298t-60.5 -298.5t-163.5 -245t-245 -163.5t-298 -61 q-209 0 -385.5 103t-279.5 279.5t-103 385.5q0 156 61 298t163.5 245t245 163.5t298.5 60.5zM767 569q-37 0 -60 15q-22 15 -34 42q-12 26 -15 63q-4 32 -4 79t4 79q3 36 15 63q12 28 35 43q22 15 60 15t60 -15q21 -14 34 -43q12 -27 15 -63t3 -79t-3 -79q-3 -37 -15 -63 q-12 -27 -35 -42t-60 -15zM767 438q67 0 116 26t79 71q29 42 43 105q14 56 14 128q0 70 -13 128t-43 104q-31 46 -78 71q-49 26 -117 26q-69 0 -118 -26q-48 -27 -78 -72q-29 -44 -43 -106q-13 -58 -13 -128q0 -67 14 -129q13 -57 44 -104q30 -43 77 -69q47 -25 116 -25z " />
<glyph unicode="&#xf0a7;" d="M768 174q161 0 297.5 79.5t216 216.5t79.5 298t-79.5 297.5t-216 216t-297.5 79.5t-298 -79.5t-216.5 -216t-79.5 -297.5t79.5 -298t216.5 -216.5t298 -79.5zM768 1535q156 0 298 -60.5t245 -163.5t163.5 -245t60.5 -298t-60.5 -298.5t-163.5 -245t-245 -163.5t-298 -61 q-209 0 -385.5 103t-279.5 279.5t-103 385.5q0 156 61 298t163.5 245t245 163.5t298.5 60.5zM651 570v-111h264v111h-65v506l-59 1l-170 -100v-142l94 57v-322h-64z" />
<glyph unicode="&#xf0a8;" d="M768 174q161 0 297.5 79.5t216 216.5t79.5 298t-79.5 297.5t-216 216t-297.5 79.5t-298 -79.5t-216.5 -216t-79.5 -297.5t79.5 -298t216.5 -216.5t298 -79.5zM768 1535q156 0 298 -60.5t245 -163.5t163.5 -245t60.5 -298t-60.5 -298.5t-163.5 -245t-245 -163.5t-298 -61 q-209 0 -385.5 103t-279.5 279.5t-103 385.5q0 156 61 298t163.5 245t245 163.5t298.5 60.5zM568 560v-106h402v125h-230l176 190q25 28 40 59q15 30 15 67q0 43 -17 80q-14 33 -44 58q-27 23 -64 35q-35 13 -77 13q-41 0 -80 -14q-36 -13 -65 -39q-27 -24 -44 -63 q-16 -42 -16 -86h123q0 16 6 31q4 14 15 25q9 11 25 18q15 6 34 6q15 0 30 -5q14 -6 23 -15q7 -7 14 -21q5 -12 5 -23q0 -28 -15 -55q-13 -21 -43 -53z" />
<glyph unicode="&#xf0a9;" d="M768 174q161 0 297.5 79.5t216 216.5t79.5 298t-79.5 297.5t-216 216t-297.5 79.5t-298 -79.5t-216.5 -216t-79.5 -297.5t79.5 -298t216.5 -216.5t298 -79.5zM768 1535q156 0 298 -60.5t245 -163.5t163.5 -245t60.5 -298t-60.5 -298.5t-163.5 -245t-245 -163.5t-298 -61 q-209 0 -385.5 103t-279.5 279.5t-103 385.5q0 156 61 298t163.5 245t245 163.5t298.5 60.5zM844 896q0 -16 -5 -26q-5 -11 -15 -20q-8 -8 -23 -13q-12 -5 -32 -5h-58v-111h57q20 0 35 -6q17 -6 27 -15q11 -11 17 -24q6 -15 6 -31t-7 -29q-5 -12 -18 -23q-11 -10 -27 -16 q-15 -6 -32 -6q-39 0 -62 20q-23 23 -24 63h-128q0 -15 4 -45q3 -24 20 -53q16 -32 44 -57q28 -24 64 -37t80 -13q46 0 84 16q38 15 68 43q28 27 45 62q16 35 16 76q0 21 -5 43q-6 23 -16 39q-11 20 -22 31q-12 13 -27 21q29 20 44 52q17 34 17 72q0 34 -16 69 q-15 33 -43 58q-30 27 -65 41q-39 14 -81 14q-47 0 -82 -16q-37 -15 -64 -43q-27 -29 -40 -63q-14 -33 -16 -75l127 -1q0 28 6 38q5 10 17 20q7 7 24 14q15 5 28 5q17 0 32 -6q12 -5 25 -16q10 -10 16 -22q5 -13 5 -25z" />
<glyph unicode="&#xf0aa;" d="M768 174q161 0 297.5 79.5t216 216.5t79.5 298t-79.5 297.5t-216 216t-297.5 79.5t-298 -79.5t-216.5 -216t-79.5 -297.5t79.5 -298t216.5 -216.5t298 -79.5zM768 1535q156 0 298 -60.5t245 -163.5t163.5 -245t60.5 -298t-60.5 -298.5t-163.5 -245t-245 -163.5t-298 -61 q-209 0 -385.5 103t-279.5 279.5t-103 385.5q0 156 61 298t163.5 245t245 163.5t298.5 60.5zM526 732v-104h270v-57h-59v-112h264v112h-78v57h86v103h-86v121l-127 -2v-119h-130l215 345h-135z" />
<glyph unicode="&#xf0ab;" d="M768 174q161 0 297.5 79.5t216 216.5t79.5 298t-79.5 297.5t-216 216t-297.5 79.5t-298 -79.5t-216.5 -216t-79.5 -297.5t79.5 -298t216.5 -216.5t298 -79.5zM768 1535q156 0 298 -60.5t245 -163.5t163.5 -245t60.5 -298t-60.5 -298.5t-163.5 -245t-245 -163.5t-298 -61 q-209 0 -385.5 103t-279.5 279.5t-103 385.5q0 156 61 298t163.5 245t245 163.5t298.5 60.5zM685 842v116h274v124h-391v-328l110 -20q22 10 39 14q22 5 46 5q23 0 38 -7q17 -8 29 -20q14 -14 19 -28q6 -15 6 -32q0 -20 -6 -37q-6 -18 -18 -30q-9 -12 -27 -20t-36 -8t-33 6 q-16 6 -27 16q-12 12 -19 26t-10 34l-126 -34q7 -41 27 -73q23 -34 49 -51q30 -22 64 -32q38 -10 75 -10t79 13q36 13 68 40q29 26 49 66q18 39 18 91q0 47 -17 84q-16 36 -45 62q-27 24 -65 38q-41 13 -79 13q-23 0 -48 -5q-26 -7 -43 -13z" />
<glyph unicode="&#xf0ac;" horiz-adv-x="1542" d="M768 174q161 0 297.5 79.5t216 216.5t79.5 298t-79.5 297.5t-216 216t-297.5 79.5t-298 -79.5t-216.5 -216t-79.5 -297.5t79.5 -298t216.5 -216.5t298 -79.5zM768 1535q156 0 298 -60.5t245 -163.5t163.5 -245t60.5 -298t-60.5 -298.5t-163.5 -245t-245 -163.5t-298 -61 q-209 0 -385.5 103t-279.5 279.5t-103 385.5q0 156 61 298t163.5 245t245 163.5t298.5 60.5zM765 744q19 0 36 -6q21 -9 30 -18q13 -10 21 -26q7 -14 7 -35q0 -22 -8 -35q-6 -13 -21 -26q-15 -11 -30 -17q-18 -5 -33 -5q-26 0 -41 8q-18 8 -29 20q-10 10 -17 27q-6 15 -6 29 q0 10 4 26q3 11 9 22q11 17 33 26q19 10 45 10zM899 1079h-142l-152 -276q-11 -18 -19 -35q-3 -6 -16 -34q-6 -13 -11 -37q-4 -16 -4 -38q0 -41 17 -80q16 -37 46 -64q28 -26 67 -43q37 -15 81 -15t83 15q41 17 68 43q29 28 46 66q17 35 17 82q0 38 -13 68q-11 31 -35 58 q-19 23 -52 43q-32 17 -64 23q-10 3 -21 3q-7 1 -21 1z" />
<glyph unicode="&#xf0ad;" horiz-adv-x="1536" d="M768 174q161 0 297.5 79.5t216 216.5t79.5 298t-79.5 297.5t-216 216t-297.5 79.5t-298 -79.5t-216.5 -216t-79.5 -297.5t79.5 -298t216.5 -216.5t298 -79.5zM768 1535q156 0 298 -60.5t245 -163.5t163.5 -245t60.5 -298t-60.5 -298.5t-163.5 -245t-245 -163.5t-298 -61 q-209 0 -385.5 103t-279.5 279.5t-103 385.5q0 156 61 298t163.5 245t245 163.5t298.5 60.5zM619 571v-112h220v112h-41q64 140 97 210q15 32 98 203v92h-451v-197h117v70h172q-9 -20 -40 -88q-28 -62 -43 -95q-2 -5 -18.5 -42t-24.5 -56q-15 -33 -43 -97h-43z" />
<glyph unicode="&#xf0ae;" d="M768 174q161 0 297.5 79.5t216 216.5t79.5 298t-79.5 297.5t-216 216t-297.5 79.5t-298 -79.5t-216.5 -216t-79.5 -297.5t79.5 -298t216.5 -216.5t298 -79.5zM768 1535q156 0 298 -60.5t245 -163.5t163.5 -245t60.5 -298t-60.5 -298.5t-163.5 -245t-245 -163.5t-298 -61 q-209 0 -385.5 103t-279.5 279.5t-103 385.5q0 156 61 298t163.5 245t245 163.5t298.5 60.5zM687 899q0 13 6 27q7 13 17 22q9 9 26 16q13 5 32 5q20 0 31 -5q17 -7 26 -16q8 -6 18 -22q6 -14 6 -27t-6 -27q-9 -14 -18 -21q-10 -9 -26 -15q-13 -6 -31 -6q-17 0 -32 6 q-18 7 -26 15q-11 10 -17 21q-6 14 -6 27zM672 648q0 17 7 31q7 13 20 25q11 10 31 18q16 6 38 6q19 0 37 -6q20 -9 30 -18q13 -12 20 -25q7 -14 7 -31t-7 -32q-6 -12 -20 -26q-13 -10 -30 -18q-18 -6 -37 -6q-22 0 -38 6q-17 7 -31 18q-14 14 -20 26q-7 15 -7 32zM768 1087 q-42 0 -78 -15q-33 -12 -63 -39q-27 -25 -43 -59q-15 -33 -15 -71q0 -34 16 -65q17 -33 44 -54q-34 -25 -55 -60q-20 -34 -20 -79q0 -26 7 -50q7 -23 21 -46q15 -23 33 -40q15 -16 43 -32q24 -14 52 -21q29 -8 58 -8q42 0 84 16q39 16 68 44q28 27 45 63q16 35 16 76 q0 42 -19 76q-22 36 -55 59q28 24 45 56q16 31 16 68q0 36 -15 69q-17 34 -44 58q-30 27 -63 39q-38 15 -78 15z" />
<glyph unicode="&#xf0b0;" d="M768 174q161 0 297.5 79.5t216 216.5t79.5 298t-79.5 297.5t-216 216t-297.5 79.5t-298 -79.5t-216.5 -216t-79.5 -297.5t79.5 -298t216.5 -216.5t298 -79.5zM768 1535q156 0 298 -60.5t245 -163.5t163.5 -245t60.5 -298t-60.5 -298.5t-163.5 -245t-245 -163.5t-298 -61 q-209 0 -385.5 103t-279.5 279.5t-103 385.5q0 156 61 298t163.5 245t245 163.5t298.5 60.5zM771 791q-21 0 -37 6q-16 5 -31 17q-13 13 -20 27t-7 34q0 21 8 36q8 16 21 26q12 10 30 17q17 6 33 6q23 0 41 -8q16 -8 29 -21q12 -13 16 -28q6 -15 6 -28q0 -10 -4 -28 q-5 -13 -10 -22q-11 -16 -32 -26q-21 -8 -43 -8zM636 457h142l152 275q10 18 19 35q3 6 16 34q8 20 11 36q4 17 4 39q0 44 -16 80q-18 37 -46 64q-33 29 -68 43q-42 16 -82 16q-41 0 -83 -16q-35 -14 -68 -43q-29 -28 -45 -66q-17 -35 -17 -82q0 -38 13 -68q11 -31 35 -58 q23 -26 52 -42q30 -18 65 -24q18 -3 19 -3q7 -1 21 -1z" />
<glyph unicode="&#xf0b1;" horiz-adv-x="1536" d="M1535 880v-224h-1171v224h1171zM1535 308v-224h-1171v224h1171zM1535 1471v-224h-1171v224h1171zM162 251q0 7 -3 13q-3 7 -9 13q-4 3 -14 9q-8 3 -18 3q-8 0 -16 -3t-13 -8q-6 -5 -10 -11q-3 -6 -3 -21l-71 1q0 21 9 42q8 19 23 35q13 15 35 24q21 9 46 9q23 0 45 -8 q22 -9 37 -23q15 -13 24 -32q9 -20 9 -39q0 -22 -9 -40q-11 -19 -25 -29q10 -8 15 -13q8 -8 12 -17q6 -9 9 -21t3 -25q0 -22 -9 -42q-9 -19 -25 -35q-16 -15 -38 -24t-47 -9q-23 0 -45 8q-20 7 -36 20q-16 15 -25 32q-10 19 -11 30q-2 16 -2 25h71q2 -24 14 -35 q11 -11 34 -11q10 0 19 3q6 2 15 9q4 3 10 13q4 10 4 16q0 10 -4 17q-4 9 -9 13q-6 6 -15 9t-20 3h-32v62h32q11 0 18 3q6 2 14 8q5 5 8 11t3 15zM2 592v59l119 127q18 19 24 30q8 13 8 31q0 9 -2 13q-3 6 -8 11q-6 6 -13 9q-8 3 -16 3q-12 0 -20 -4q-8 -3 -14 -9 q-7 -11 -8 -15q-2 -5 -4 -17h-68q0 27 9 48q9 22 24 35q16 14 37 22q22 8 45 8t43 -7q22 -8 36 -20q15 -14 24 -33q9 -18 9 -44q0 -22 -8 -38q-6 -14 -22 -33l-99 -106h129v-70h-225zM53 1189v62h37v181l-53 -32v79l95 56h33v-284h36v-62h-148z" />
<glyph unicode="&#xf0b2;" horiz-adv-x="1580" d="M1577 1116h-1392v61q0 46 33.5 79t80.5 33h297q47 0 81 -33t34 -79l842 -9q15 -1 19 -5l5 -13v-34zM1577 429l-206 639h206v-639zM1515 230l-243 783h-1272l178 -783h1337z" />
<glyph unicode="&#xf0b3;" horiz-adv-x="1368" d="M1367 740l-467 -255l361 -106zM681 1535v-1404l-179 -131v1535h179zM1102 441l170 130q-42 149 -189.5 253.5t-347.5 126.5v-140q159 -24 264 -121t105 -223q0 -8 -2 -26zM454 0v148q-122 42 -196.5 128t-74.5 191q0 106 74.5 192t196.5 128v148q-200 -46 -327 -175 t-127 -293q0 -163 127 -292t327 -175z" />
<glyph unicode="&#xf0b4;" d="M0 768l214 -215l2 2v425l-2 2zM210 672v192h476v-192h-476zM1535 714v-192h-477v192h477zM1535 1127v-192h-767v192h767zM1535 192v-192h-1535v192h1535zM1535 1535v-192h-1535v192h1535z" />
<glyph unicode="&#xf0b5;" d="M764 920l726 259l-725 312l-728 -322l667 -254l52 -876zM1535 1195l-4 -853l-771 -342l-760 335v852l765 348z" />
<glyph unicode="&#xf0b6;" horiz-adv-x="1247" d="M1151 1203l-239 -2l-1 238h-815v-1343h1055v1107zM1019 1535l115 -113l113 -113v-1309h-1247v1535h1019zM1033 320q0 -15 -12.5 -21.5t-24.5 0t-12 21.5q0 43 2.5 137.5t2.5 138.5t-3 138q-3 56 -40.5 92.5t-95.5 34.5q-73 -3 -102 -31.5t-30 -96.5q-1 -124 6 -308 q0 -21 1.5 -62t2.5 -61q1 -37 33.5 -62t74.5 -23.5t66 32.5q16 20 18 64.5t-4 104t-6 71.5q0 13 2 49t2 59t-5 53t-18 49q-62 93 -86 -2q-9 -36 -9 -74v-121q0 -23 -24 -23t-24 23q0 16 -2 50t-3 58t2.5 55.5t12 52.5t27.5 39t47 24q30 7 53.5 -4.5t37 -33t21.5 -52t11 -56 t3 -50.5q1 -91 1 -274q0 -4 0.5 -21t0 -24t-3.5 -19t-10 -20q-33 -43 -92.5 -54.5t-111 15t-61.5 84.5q-8 47 -11.5 106.5t-3.5 102.5t1.5 112.5t1.5 102.5q0 124 44.5 172t171.5 39q72 -6 111 -63t39 -132q-1 -65 -1.5 -196t-0.5 -196z" />
<glyph unicode="&#xf0b7;" horiz-adv-x="1243" d="M1145 1203l-240 -2v238h-815v-1343h1055v1107zM1013 1535l115 -113l113 -113v-1309h-1246v1535h1018zM99 514v-109l482 -206v134l-365 125v2l365 125v135zM1100 401v117l-482 202v-135l373 -125v-2l-373 -125v-134z" />
<glyph unicode="&#xf0b8;" horiz-adv-x="1538" d="M1391 144v672h-671v-672h671zM576 959h959v-959h-959v959zM528 720v-144h-528v959h959v-528h-143v384h-672v-671h384z" />
<glyph unicode="&#xf0b9;" horiz-adv-x="1249" d="M1151 1203l-239 -2l-1 238h-815v-1343h1055v1107zM1019 1535l115 -113l113 -113v-1309h-1247v1535h1019zM397 270q7 0 13 3q9 6 10 7q1 2 3.5 5.5t4.5 5.5q2 4 4 12q5 19 11 62q2 21 6 61q2 18 8 62q3 27 11 62q29 9 45 11q19 5 36 6q9 2 30 4l15 2.5t12 1.5q7 1 12 8 q4 4 9 14q2 5 4 15q2 12 2 14q0 10 -4 15q-3 5 -10 8q-8 4 -15 4q-5 1 -18 1q-18 0 -25 -1q-8 -2 -24 -4q-7 -2 -23 -4t-25 -2l-4 1q0 1 1 2q0 2 1 3q14 61 30 100q14 39 35 69q18 26 42 47q22 18 48 33q14 6 21 7q12 3 20 3t13 -5t8 -13q1 -3 2.5 -8.5t2.5 -7.5 q4 -12 6 -17q4 -7 11 -12q5 -5 18 -5q9 0 16 4q5 3 13 13q6 9 9 19t3 23q0 10 -1 14q-2 9 -5 13q-15 28 -39 42q-25 14 -63 14q-30 0 -60 -11q-27 -9 -53 -28q-23 -16 -48 -43q-21 -23 -42 -53q-11 -17 -21 -45q-12 -28 -18 -50q-13 -47 -14 -51q-8 -32 -11 -46 q-1 -5 -5 -15q-3 -8 -10 -9l-24 -3q-12 0 -22 -5q-9 -5 -14 -16q-6 -11 -6 -24q0 -14 8 -22q9 -6 18 -9q11 -3 18 -6q8 -3 10 -9v-8q0 -14 -1 -23q-2 -20 -4 -31q-1 -6 -2.5 -17t-2.5 -16q-4 -22 -6 -32q-1 -13 -5 -28q0 -4 -4 -18q-1 -3 -2.5 -11t-2.5 -11q-2 -14 -2 -18 q0 -7 4 -21q3 -10 9 -17q7 -8 14 -12q8 -4 19 -4zM435 538l-66 -122q-3 -30 -19 -83q-9 -33 -25 -59q-13 -20 -35 -46q-10 -10 -17 -13q-8 -4 -17 -7q-7 -1 -13 3q-5 4 -10 12q-6 10 -9 16q-6 12 -10 17q-8 8 -13 11q-7 4 -17 1q-6 -1 -13 -8q-5 -6 -8 -17q-3 -9 -3 -22 t3 -26q1 -3 2.5 -8t1.5 -6q2 -5 8 -13q21 -27 46 -36q24 -10 60 -2q29 8 51 24q22 18 40 43q4 5 13.5 15.5t17 20.5t11.5 19q8 18 20 63q2 5 1 26t0 31q2 38 3 58q0 38 -1 57q0 9 -0.5 26t-1.5 25zM678 479q24 4 44 20q21 15 29 32q7 16 21 71q2 6 5 20.5t5 20.5q5 17 16 31 q15 15 33 22q19 8 52 8q28 0 28 28q0 12 -7 19q-6 8 -17 8q-24 0 -51 -5q-20 -4 -43 -16q-22 -13 -35 -28q-15 -17 -21 -31q-4 -12 -16 -57q-13 -56 -20 -72q-7 -18 -27 -30q-19 -10 -67 -13q-27 -1 -27 -28q0 -7 6 -15q6 -6 15 -8q23 -1 40 -13q14 -11 14 -26t-16 -81 q-13 -48 -13 -76q0 -38 35 -64t84 -26q16 0 24 8q9 8 9 19q0 23 -20 25q-45 3 -60 15t-15 27q0 21 10 58q18 72 18 102q0 18 -8 33q-9 16 -25 22zM1017 445q-32 -5 -51 -20q-20 -14 -28 -32q-7 -16 -19 -67q-9 -42 -15 -57q-4 -13 -18 -25q-13 -10 -29 -14q-13 -5 -49 -5 q-29 0 -29 -28q0 -11 9 -19q8 -8 21 -8q33 0 54 5q25 5 45 18q21 13 34 32q16 21 20 36q6 20 11 53q11 48 11 50q5 17 16 28q12 12 34 18q19 7 56 10q30 2 30 31q0 17 -20 19q-46 3 -56 15q-10 11 -10 23q0 25 15 82q13 54 13 75q0 40 -30 67q-28 27 -75 27q-42 0 -42 -28 q0 -10 6 -16q5 -6 17 -8q17 -1 37 -6q12 -5 21 -15t9 -31t-7 -51q-19 -75 -19 -101q0 -18 10 -35q11 -19 28 -23z" />
<glyph unicode="&#xf0ba;" horiz-adv-x="1463" d="M1129 764q41 0 70.5 25.5t29.5 61.5q0 37 -29.5 62.5t-70.5 25.5t-70 -25.5t-29 -62.5q0 -36 29 -61.5t70 -25.5zM1091 519q34 0 58.5 21.5t24.5 51.5t-24.5 51.5t-58.5 21.5t-58.5 -21.5t-24.5 -51.5t24.5 -51.5t58.5 -21.5zM983 328q30 0 51 18.5t21 44.5t-21 44.5 t-51 18.5t-51 -18.5t-21 -44.5t21 -44.5t51 -18.5zM873 1121q0 -47 38 -80t91 -33t91 33t38 80t-38 80.5t-91 33.5t-91 -33.5t-38 -80.5zM709 1166q54 0 92 33.5t38 80.5t-38 80t-92 33q-53 0 -91 -33t-38 -80t38 -80.5t91 -33.5zM781 1535q139 -4 264.5 -65t217 -162 t145.5 -241.5t54 -295.5t-54 -296.5t-145 -244t-217 -163t-265 -60.5q-76 0 -107 41.5t-24.5 108t27 147t39 161t21.5 147t-35 108.5t-122 43q-181 1 -271 126q-77 106 -56 252q21 153 137 261q150 140 391 133zM96 116l46 996q2 47 -19.5 81.5t-51.5 34.5t-51 -35t-20 -83 l40 -988q1 -19 0.5 -37t0 -33.5t3 -27t9.5 -18t18 -6.5t17 6t7.5 16.5t1.5 25t-1 32t0 36.5zM131 1382q-11 12 -16 26.5t-4.5 27.5t3.5 26t7.5 23.5t7.5 18.5t2 12.5t-7 4.5q-27 0 -64.5 -43.5t-37.5 -95.5q0 -57 16 -97.5t38 -40.5q17 0 40 23.5t31.5 54t-16.5 60.5z" />
<glyph unicode="&#xf0bb;" horiz-adv-x="760" d="M754 311q0 -30 -24.5 -42.5t-49 0t-24.5 42.5q0 97 5 287.5t5.5 288.5t-6.5 287q-6 117 -83 193t-198 72q-152 -7 -212.5 -67t-62.5 -201q-2 -189 13 -641q3 -127 9 -257q2 -56 43.5 -101.5t97.5 -65t118.5 -6.5t101.5 63q32 42 35.5 135t-8 216.5t-11.5 149.5 q0 29 3.5 102t4.5 122.5t-10.5 111t-37.5 101.5q-112 171 -165 35q-30 -80 -32 -193v-253q0 -30 -24.5 -42t-49.5 0t-25 42q0 31 -3.5 88t-5 101t-1 100t11 99.5t29.5 84.5t55 68.5t87 39.5q41 7 74 3.5t59 -24.5t45.5 -46.5t33.5 -62t23.5 -71.5t15 -74t8 -70.5t2.5 -61.5 q0 -95 0.5 -285.5t0.5 -285.5q0 -10 1.5 -35.5t1 -39t-2.5 -33.5t-8.5 -36t-17.5 -31q-51 -66 -138.5 -95.5t-171.5 -19.5t-152 65t-83 145q-16 98 -23.5 221.5t-7.5 211.5t2.5 235t2.5 212q0 130 18.5 212t67.5 139.5t136 77.5t223 10q76 -6 137 -43t97.5 -94.5 t55.5 -125.5t19 -140q-1 -136 -2.5 -409t-2.5 -409z" />
<glyph unicode="&#xf0bc;" horiz-adv-x="1242" d="M1166 937l-187 -1v186h-636v-1047h823v862zM1063 1196l89 -88l88 -88v-1020h-972v1196h795zM210 1244v-1144h-210v1296h1100v-180l-28 28h-862zM765 1442v41h-429v-41h429zM247 1535h606v-187h-606v187zM1081 682v48h-672v-48h672zM1081 499v48h-672v-48h672zM1081 343 v48h-672v-48h672z" />
<glyph unicode="&#xf0bd;" horiz-adv-x="1220" d="M360 72v1391h-288v-1391h288zM0 1535h432v-1535h-432v1535zM1142 72v1391h-287v-1391h287zM783 1535h431v-1535h-431v1535z" />
<glyph unicode="&#xf0be;" horiz-adv-x="1215" d="M1214 1535v-1535h-431v1535h431zM432 1535v-1535h-432v1535h432z" />
<glyph unicode="&#xf0c0;" horiz-adv-x="1543" d="M1512 1320l-22 -22q-13 -13 -23.5 -15.5t-21.5 6t-20 19.5t-23.5 29.5t-27.5 30.5q-12 12 -30.5 27t-29 23.5t-19 19.5t-6.5 21.5t15 23.5l22 22q34 34 84.5 30t88.5 -42q39 -38 42.5 -89t-29.5 -84zM1135 1333l202 -203l135 135l-203 202zM359 166l-214 -74l-27 28 l-53 -55l53 55l-22 28l79 212l-175 -360zM1333 1140l-971 -972l3 70l935 935zM1263 1210l-935 -935q-4 -2 -10 -4t-21.5 -4t-18.5 5q-5 5 -5 18.5t2 24.5l2 11l935 935zM1178 1295l-934 -935l-69 2l968 968z" />
<glyph unicode="&#xf0c1;" horiz-adv-x="1582" d="M237 1535q75 -52 130.5 -118.5t81 -124t40.5 -108t17 -79.5l2 -29q-50 -43 -80.5 -83.5t-38 -67.5t-8 -47.5t4.5 -30.5l5 -10q24 -55 85.5 -122t131.5 -123.5t137 -105t111 -76.5l44 -27q43 -12 77 -3.5t59 31t41.5 46t24.5 41.5l8 18q80 -10 157.5 -38t131 -61t95.5 -65 t62 -53l20 -21q-15 -56 -43 -101.5t-61 -74t-69 -49.5t-69 -30.5t-60 -15t-43 -6.5l-16 -1q-101 9 -250.5 98.5t-300 220.5t-289 275.5t-236 276.5t-123.5 210q-24 80 -11 149t51 125.5t78 96t72 61.5z" />
<glyph unicode="&#xf0c2;" horiz-adv-x="1513" d="M1425 595q-352 -63 -437 50q-30 40 -21 83q-16 44 -39 79t-38 48l-15 13q-115 17 -183 14.5t-95 -14.5l-27 -12q-24 -24 -33.5 -46t-6 -36t11 -24t14.5 -14l8 -5q-74 -58 -143 -98t-120.5 -57.5t-96.5 -25.5t-75.5 -4t-52.5 10t-32 12l-10 7q-23 70 -30 129t0.5 98 t22 69.5t33.5 47.5t36 28t28 15l12 3q73 31 162.5 59t219 53.5t253.5 32t263 -15.5t252 -79q81 -40 132.5 -85t69 -85t20 -78.5t-11.5 -69t-29 -54t-29 -35.5z" />
<glyph unicode="&#xf0c3;" horiz-adv-x="1542" d="M404 0q-168 0 -286 118t-118 286q0 167 118 285l728 728q118 118 286 118q167 0 285 -118t118 -285q0 -168 -118 -286l-728 -728q-118 -118 -285 -118zM539 1001l472 -451l351 351q96 94 96 231q0 136 -96 230q-94 96 -230 96q-137 0 -231 -96z" />
<glyph unicode="&#xf0c4;" horiz-adv-x="1613" d="M365 1172q0 19 6.5 27.5t12.5 7.5l7 -1q34 -3 88 -7.5t169.5 -5t171.5 13.5q44 10 59.5 25.5t11 26.5t-19 28.5t-16.5 22.5q-1 2 -17 26.5t-28 46.5t-13 52t17 51.5t73 36t145 12.5q95 -2 149 -24t66.5 -52t4.5 -69.5t-27 -69.5t-39.5 -58.5t-21.5 -30.5q-5 -12 6 -23.5 t24 -17.5l14 -5l124 -2q206 -6 226 -24q8 -8 10.5 -50.5t4.5 -104t8 -96.5q6 -38 -3.5 -52t-21.5 -8l-13 5q-47 22 -86 33.5t-68 15t-52 -4.5t-38.5 -18.5t-28 -32.5t-19 -41t-12 -50t-8 -53.5l-6.5 -58.5t-7 -57q-7 -54 7.5 -99t43.5 -71.5t64.5 -41t71 -13.5t60.5 17 q105 64 130 13q6 -12 9.5 -71.5t4.5 -113.5l1 -54q5 -48 -2 -113q-3 -28 -121.5 -34.5t-236.5 1.5l-117 7l-28 21q-47 43 15 57q45 11 66 73t-23 123.5t-160 64.5q-61 1 -103.5 -13.5t-62 -39t-27 -54.5t-1.5 -60.5t17.5 -56.5t26.5 -43q17 -18 17.5 -34t-10.5 -25t-24 -15 t-24 -9l-11 -2l-345 6h-39q-17 0 -28.5 18t-14.5 36l-3 18l-26 221l1 53q-6 80 -57 -18l-29 -61q-67 -154 -174 -23q-49 61 -86 147q1 12 3.5 32.5t15 71.5t29 89t49 68t72.5 26t62 -20t28 -37.5t8.5 -43.5t11 -39.5t27.5 -22.5q21 -5 33.5 -2t18 12t7.5 18t1 17l-1 7v599z " />
<glyph unicode="&#xf0c5;" horiz-adv-x="1538" d="M888 0h-240v1535h240v-1535zM1535 888v-240h-1535v240h1535z" />
<glyph unicode="&#xf0c6;" horiz-adv-x="1536" d="M959 0h-383v1535h383v-1535zM1535 959v-383h-1535v383h1535z" />
<glyph unicode="&#xf0c7;" horiz-adv-x="1536" d="M1439 96v1343h-1343v-1343h1343zM0 1535h1535v-1535h-1535v1535zM838 579v189h-378v213h401v191h-633v-1028h654v191h-422v244h378z" />
<glyph unicode="&#xf0c8;" horiz-adv-x="1533" d="M1439 96v1343h-1343v-1343h1343zM0 1535h1535v-1535h-1535v1535zM462 1174h-232v-1028h232v430h383v-430h232v1028h-232v-395h-383v395z" />
<glyph unicode="&#xf0c9;" horiz-adv-x="1538" d="M1439 96v1343h-1343v-1343h1343zM0 1535h1535v-1535h-1535v1535zM1074 530l16 -384h220l-53 1003h-298l-106 -334q-43 -136 -95 -360h-6q-35 190 -85 359l-98 335h-302l-64 -1003h210l19 381q5 91 17 415h3q40 -208 91 -393l107 -387h177l122 391q74 239 113 389h3 q0 -196 9 -412z" />
<glyph unicode="&#xf0ca;" d="M1439 96v1343h-1343v-1343h1343zM0 1535h1535v-1535h-1535v1535zM186 698v-514h228v440q0 36 9 60q14 34 41.5 58.5t68.5 24.5q55 0 82 -42t27 -116v-425h229v441q0 34 8 61q13 35 41.5 58t67.5 23q111 0 111 -172v-411h228v445q0 163 -70 245.5t-184 82.5 q-79 0 -144 -37q-53 -30 -98 -92h-3q-25 60 -79.5 94.5t-127.5 34.5q-150 0 -228 -120h-5l-9 102h-199q6 -136 6 -241z" />
<glyph unicode="&#xf0cb;" horiz-adv-x="1060" d="M981 1066q-16 -42 -58 -49.5t-71.5 19t-13.5 68.5q30 90 6 153.5t-92 93.5t-145.5 34.5t-155.5 -24t-121 -81.5q-41 -51 -53 -108t-0.5 -114.5t29.5 -110.5t37.5 -115.5t22.5 -108.5q15 -218 -40 -370.5t-203 -331.5q-9 21 -26.5 62.5t-25.5 62.5q58 2 130 28.5t144 48.5 t141 17q28 -2 78 -15t99 -27t99.5 -25t94.5 -8.5t69 22.5q41 32 88 6q39 -22 41 -59q2 -29 -25 -50q-82 -64 -177 -64t-214 43q-62 22 -122.5 25t-115 -10t-105 -29t-111.5 -31.5t-114 -17.5q-50 -1 -66 44.5t14 80.5q50 60 87.5 116.5t68.5 122.5t46 130t12.5 137 t-24.5 147q-9 29 -33 92t-38 113.5t-15 96.5q-4 138 54 231.5t184 162.5q66 36 140.5 51t144 8.5t135.5 -30t114 -65.5t79.5 -97.5t33 -125t-26.5 -149.5zM99 583q-43 -13 -70 16.5t-19.5 70t50.5 53.5q25 8 71 34t70 35q45 17 121 41q135 42 274 23q47 -7 53 -50 q6 -41 -27 -71q-28 -25 -65 -20q-94 14 -257 -42q-34 -12 -99 -45t-102 -45z" />
<glyph unicode="&#xf0cc;" horiz-adv-x="1354" d="M782 1535v-753h-215v753h215zM1152 1152q-123 123 -292 172v-133q116 -42 203 -128q105 -105 142.5 -246.5t0 -283t-142.5 -246.5t-246.5 -142.5t-283 0t-246.5 142.5t-142.5 246.5t0 282.5t142.5 247q86 85 196 125v134q-166 -49 -285 -170q-129 -129 -175 -303t0 -348 t175 -303t303 -175t348 0t303 175q130 129 176 303t0 348t-176 303z" />
<glyph unicode="&#xf0cd;" horiz-adv-x="1583" d="M1332 49v543h-1085v-543h1085zM197 641h1185v-641h-1185v641zM1332 1150h-221l1 182h-865v-542h1085v360zM1156 1382l102 -86l123 -101l1 -455h-1185v642h959zM1184 345v99h-839v-99h839zM1184 197v99h-839v-99h839zM1470 735q23 0 39 16.5t16 39.5t-16.5 39t-38.5 16 q-23 0 -39.5 -16t-16.5 -39t16.5 -39.5t39.5 -16.5zM1380 938l199 -64v-543h-247v275h-1085v-275h-247v543l197 62v-60v-2h1184z" />
<glyph unicode="&#xf0ce;" horiz-adv-x="821" d="M817 663h-817q31 102 145 168.5t263 66.5q148 0 262.5 -66.5t146.5 -168.5zM399 1303q105 0 193 40l32 -419q-100 36 -209 36q-117 0 -219 -40l31 414q81 -31 172 -31zM88 1535h631q-24 -79 -112 -130t-203 -51t-203.5 51t-112.5 130zM404 0l38 638h-79z" />
<glyph unicode="&#xf0d0;" horiz-adv-x="1600" d="M785 1147l-205 -331l-92 94l292 471l313 -480l-87 -92zM923 242h453l-219 336l87 92l355 -543h-677zM678 242l-1 -115h-675l339 547l93 -94l-209 -338h453zM511 494l-263 247l235 34zM893 764l278 223l-46 -278zM963 400l-4 -400l-165 202z" />
<glyph unicode="&#xf0d1;" horiz-adv-x="1588" d="M1158 1214q-36 0 -61.5 24.5t-25.5 59.5t25.5 59.5t61.5 24.5t61.5 -24.5t25.5 -59.5t-25.5 -59.5t-61.5 -24.5zM1158 1320q-8 0 -14.5 -6.5t-6.5 -15.5t6.5 -15.5t14.5 -6.5t14.5 6.5t6.5 15.5t-6.5 15.5t-14.5 6.5zM848 1049q14 43 33 103t33 103q-34 -31 -35 -32 q37 5 111 15.5t111 15.5q-3 2 -7.5 5.5t-14 14t-15 20.5t-4 24t13.5 26q4 4 -18 2q-24 -3 -114 -19q-65 -11 -89 -15q-25 -3 -35 -32q-14 -43 -66 -224q5 -1 13 -2.5t33.5 -3.5t49.5 -1zM503 283q234 -146 574 -5q34 14 24 47q-10 29 -40 36q-17 5 -35 -3q-279 -115 -473 6 q-16 9 -31 7.5t-25 -12.5t-14.5 -24t0.5 -28t20 -24zM1018 547q-57 0 -97.5 31.5t-40.5 76.5q0 44 40.5 75.5t97.5 31.5q58 0 98.5 -31.5t40.5 -75.5q0 -45 -40.5 -76.5t-98.5 -31.5zM1018 700q-29 0 -50.5 -13.5t-21.5 -31.5q0 -19 21.5 -32.5t50.5 -13.5t50.5 13.5 t21.5 32.5q0 18 -21.5 31.5t-50.5 13.5zM556 543q-57 0 -97.5 32t-40.5 76t40.5 75.5t97.5 31.5t97.5 -31.5t40.5 -75.5t-40.5 -76t-97.5 -32zM556 696q-29 0 -50.5 -13.5t-21.5 -31.5q0 -19 21.5 -32t50.5 -13t50.5 13t21.5 32q0 18 -21.5 31.5t-50.5 13.5zM1335 708v124 q52 0 85 25.5t33 100.5q0 55 -50.5 93.5t-121.5 38.5t-121.5 -38.5t-50.5 -93.5h-133q0 106 89.5 181.5t215.5 75.5t215.5 -75.5t89.5 -181.5q0 -118 -66.5 -184t-184.5 -66zM251 720q-118 0 -184.5 66t-66.5 184q0 106 89.5 181.5t215.5 75.5t215.5 -75.5t89.5 -181.5h-133 q0 55 -50.5 93.5t-121.5 38.5t-121.5 -38.5t-50.5 -93.5q0 -75 33 -100.5t85 -25.5v-124zM793 0q-148 0 -283 41.5t-232.5 111.5t-155.5 167.5t-58 203.5t58 203t155.5 167t232.5 111.5t283 41.5t283 -41.5t232.5 -111.5t155.5 -167t58 -203t-58 -203.5t-155.5 -167.5 t-232.5 -111.5t-283 -41.5zM793 923q-162 0 -299 -53.5t-217 -145.5t-80 -200q0 -109 80 -201t217 -145.5t299 -53.5q161 0 298.5 53.5t217.5 145.5t80 201q0 108 -80 200t-217.5 145.5t-298.5 53.5z" />
<glyph unicode="&#xf0d2;" horiz-adv-x="1531" d="M347 741h-123v1q0 178 87.5 328t237.5 237.5t328 87.5q177 0 327 -87.5t237.5 -237.5t87.5 -328q0 -132 -51 -252t-137.5 -207t-205.5 -139.5t-251 -53.5v122q143 2 263 73.5t190 192.5t70 264q0 144 -71 266.5t-193 193.5t-266 71q-108 0 -206.5 -42t-169.5 -113 t-113 -169.5t-42 -206.5zM0 743h609l-305 -304z" />
<glyph unicode="&#xf0d3;" horiz-adv-x="1538" d="M503 389v776q99 17 237 17q176 0 255 -62q73 -59 73 -166q0 -69 -41.5 -120.5t-97.5 -71.5v-4q75 -30 105 -146q8 -30 22.5 -86.5t24 -89.5t16.5 -47h-182q-22 49 -53 184q-17 73 -45 99.5t-85 26.5h-52v-310h-177zM680 1043v-216h70q66 0 103.5 30.5t37.5 82.5 q0 53 -34.5 81t-96.5 28q-56 0 -80 -6zM767 0q-154 0 -294 58t-249 167q-110 110 -167 253.5t-57 289t57 289t167 253.5q109 109 249 167t294 58t294 -58t249 -167t167 -248.5t58 -293.5t-58 -294t-167 -249t-249 -167t-294 -58zM767 1379q-122 0 -233.5 -46.5 t-198.5 -132.5q-117 -118 -158.5 -275t0 -314.5t158.5 -274.5q87 -87 198.5 -133t233.5 -46q123 0 234.5 46t197.5 133q87 86 133 197.5t46 234.5q0 122 -46 233.5t-133 198.5q-86 86 -198 132.5t-234 46.5z" />
<glyph unicode="&#xf0d4;" horiz-adv-x="1320" d="M1193 660h124v-2q0 -134 -52 -255.5t-140.5 -210t-210.5 -140.5t-256 -52t-255.5 52t-210 140.5t-140.5 210t-52 255.5q0 178 87 328.5t237 239t327 90.5v-123q-144 -2 -265.5 -74t-192 -194.5t-70.5 -266.5q0 -109 42.5 -208t114 -170.5t170.5 -114t208 -42.5t208 42.5 t170.5 114t114 170.5t42.5 208v2zM643 921v614l308 -307z" />
<glyph unicode="&#xf0d5;" horiz-adv-x="1151" d="M896 867q16 0 27.5 11.5t11.5 27.5t-11.5 27.5t-27.5 11.5h-640q-16 0 -27.5 -11.5t-11.5 -27.5t11.5 -27.5t27.5 -11.5h640zM275 1375v-328h602v328h-602zM0 1535h1151v-1535h-1151v1535z" />
<glyph unicode="&#xf0d6;" horiz-adv-x="1548" d="M1545 9l-773 763l773 763v-1526zM772 0l-772 763l772 763v-1526z" />
<glyph unicode="&#xf0d7;" horiz-adv-x="1538" d="M0 0v1535h144v-1535h-144zM143 768l687 -759v1517zM830 768l705 -759v1517z" />
<glyph unicode="&#xf0d8;" horiz-adv-x="1516" d="M0 1062v-519h811v519h-811zM863 150v1305l652 -652z" />
<glyph unicode="&#xf0d9;" horiz-adv-x="1538" d="M0 1535l1535 -767l-1535 -768v1535z" />
<glyph unicode="&#xf0da;" horiz-adv-x="857" d="M723 763l-642 579v-1158zM0 0v1535l851 -767z" />
<glyph unicode="&#xf0db;" d="M1075 202q0 178 -67.5 340t-181.5 280t-272 189.5t-332 75.5v259q181 -3 350.5 -62.5t305.5 -165.5t238.5 -246t158 -313t55.5 -357v-9h-256q0 1 0.5 4t0.5 5zM749 217q0 140 -67.5 259.5t-183.5 190.5t-254 74v153q134 -3 255.5 -57.5t209 -144.5t139.5 -214.5 t52 -260.5v-5h-152q0 1 0.5 2.5t0.5 2.5zM556 365q0 68 -48 116.5t-116 48.5t-116.5 -48.5t-48.5 -116.5t48.5 -116t116.5 -48t116 48t48 116zM1439 96v1343h-1343v-1343h1343zM0 1535h1535v-1535h-1535v1535z" />
<glyph unicode="&#xf0dc;" d="M768 96q137 0 261 53t214 143t143 214.5t53 261.5t-53 261t-143 214t-214 143t-261 53t-261.5 -53t-214.5 -143t-143 -214t-53 -261q0 -182 90 -337t245 -245t337 -90zM768 1535q156 0 298 -60.5t245 -163.5t163.5 -245t60.5 -298t-60.5 -298.5t-163.5 -245t-245 -163.5 t-298 -61q-209 0 -385.5 103t-279.5 279.5t-103 385.5q0 156 61 298t163.5 245t245 163.5t298.5 60.5zM640 973q0 59 -42.5 101.5t-101.5 42.5q-60 0 -102 -42.5t-42 -101.5q0 -60 42 -102t102 -42q59 0 101.5 42t42.5 102zM1183 973q0 59 -42 101.5t-102 42.5 q-59 0 -101 -42.5t-42 -101.5q0 -60 42 -102t101 -42q60 0 102 42t42 102zM367 357h-61q38 122 166.5 201t295.5 79q166 0 294.5 -79t166.5 -201h-61q-37 102 -147.5 168t-252.5 66t-253 -65.5t-148 -168.5z" />
<glyph unicode="&#xf0dd;" horiz-adv-x="1538" d="M1291 1352v-76h-1047v76h1047zM1269 372v-235h-366v235h366zM1369 862v586h-1203v-586h1203zM1369 74v362h-1203v-362h1203zM0 1535h1535v-1535h-1535v1535zM1291 1045v-75h-1047v75h1047z" />
<glyph unicode="&#xf0de;" horiz-adv-x="1527" d="M1420 444v841h-1314v-841h1314zM0 1352h1525v-976h-1525v976zM973 170l-111 151h-238l-120 -151h469z" />
<glyph unicode="&#xf0e0;" horiz-adv-x="1538" d="M458 767q128 0 219 91t91 219t-91 219t-219 91t-219 -91t-91 -219t91 -219t219 -91zM458 1535q124 0 229.5 -61.5t167 -167t61.5 -229.5t-61.5 -229.5t-167 -167t-229.5 -61.5t-229.5 61.5t-167 167t-61.5 229.5t61.5 229.5t167 167t229.5 61.5zM1508 28q26 26 27.5 62 t-23.5 61l-680 679q-13 10 -15.5 6.5t-5.5 -21.5q0 -5 -0.5 -8l-1.5 -9t-2 -9.5t-3 -9t-4 -9.5t-5 -8.5t-6 -7.5l-16 -15q-6 -6 -14.5 -10t-15 -5.5t-16 -2.5t-13.5 -1q-15 0 -17 -2.5t8 -14.5l680 -680q24 -23 60 -21.5t63 26.5z" />
<glyph unicode="&#xf0e1;" horiz-adv-x="1611" d="M1501 1143v-846h-645v846h645zM763 1535v-1236h-646v1236h646zM1609 169v-169h-1609v169h1609z" />
<glyph unicode="&#xf0e2;" horiz-adv-x="1183" d="M186 1431h807v-615h-807v615zM0 728h1179v-616h-1179v616zM509 1535h161v-1535h-161v1535z" />
<glyph unicode="&#xf0e3;" horiz-adv-x="1470" d="M1094 105h-808v615h808v-615zM1465 808h-1180v615h1180v-615zM161 0h-161v1535h161v-1535z" />
<glyph unicode="&#xf0e4;" d="M1436 852v-162h103v162h-103zM725 852v-162h88v162h-88zM0 852v-162h103v162h-103zM607 469v604h-407v-604h407zM104 1176h617v-810h-617v810zM915 282h404v978h-404v-978zM1426 1362l1 -1182h-618v1182h617z" />
<glyph unicode="&#xf0e5;" horiz-adv-x="1465" d="M371 1431h807v-615h-807v615zM0 728h1179v-616h-1179v616zM1303 1535h162v-1535h-162v1535z" />
<glyph unicode="&#xf0e6;" horiz-adv-x="1613" d="M109 391v846h645v-846h-645zM846 0v1236h646v-1236h-646zM0 1366v169h1609v-169h-1609z" />
<glyph unicode="&#xf0e7;" horiz-adv-x="1351" d="M740 1535l607 -1535h-607v1535zM147 136h401v1010zM0 2l608 1531v-1531h-608z" />
<glyph unicode="&#xf0e8;" horiz-adv-x="1614" d="M0 743l1613 639v-639h-1613zM1472 155v421h-1062zM1613 0l-1609 638h1609v-638z" />
<glyph unicode="&#xf0e9;" horiz-adv-x="1658" d="M1519 58v947h-937v-947h937zM53 1519v-138h-53v198h197v-60h-144zM582 682v-98h-529v937h938v-516h-99v417h-740v-740h430zM60 586h137v-54h-197v198h60v-144zM582 1007v-137h-54v197h198v-60h-144zM993 1525h-138v54h197v-198h-59v144zM1519 1009h-138v54h198v-198h-60 v144zM578 53h137v-53h-197v197h60v-144zM1525 60v137h54v-197h-198v60h144z" />
<glyph unicode="&#xf0ea;" horiz-adv-x="1482" d="M1274 210v1048h-1057v-1048h1057zM76 1397h1339v-1327h-1339v1327zM78 68h204v-68h-282v296h78v-228zM73 1401v-204h-73v282h319v-78h-246zM1401 1399h-204v80h282v-348h-78v268zM1415 78v204h64v-282h-280v78h216z" />
<glyph unicode="&#xf0eb;" horiz-adv-x="1536" d="M1171 810h364v-810h-811v363h100v-263h611v609h-264v101zM364 721h-364v814h812v-365h-101v264h-611v-613h264v-100zM824 710v-417h-538v529h426v418h521v-530h-409z" />
<glyph unicode="&#xf0ec;" horiz-adv-x="1538" d="M1060 1051h475v-1051h-1060v471h131v-341h798v791h-344v130zM606 921v-464h-606v1078h1060v-614h-454z" />
<glyph unicode="&#xf0ed;" horiz-adv-x="1536" d="M1535 1060h-475v-131h344v-798h-798v344h-131v-475h1060v1060zM1060 1535v-1060h-1060v1060h1060z" />
<glyph unicode="&#xf0ee;" horiz-adv-x="1536" d="M1233 293v947h-947v-947h947zM1238 812h297v-812h-811v287h100v-187h611v611h-197v101zM287 724h-287v811h812v-287h-101v187h-611v-611h187v-100z" />
<glyph unicode="&#xf0f0;" horiz-adv-x="1554" d="M1074 1229v-161q0 -3 15.5 0t41 -2t58 -9.5t66 -22t65 -39t55.5 -61t38 -87.5t11 -119.5t-25 -155.5q1 12 1 32.5t-14.5 70.5t-44 85.5t-99 58t-167.5 7.5v-168l-351 303zM1550 160l-831 614v-614h831zM792 220v405l548 -405h-548zM0 160l614 1243v-1243h-614z" />
<glyph unicode="&#xf0f1;" horiz-adv-x="1533" d="M925 1228l606 -1228h-606v1228zM750 59v400l-543 -400h543zM0 0l821 606v-606h-821zM471 897v159l345 -265l-346 -299v166q-74 10 -127 2t-88 -29.5t-56.5 -50t-32 -59t-14 -56t-2.5 -41.5v-17q-27 110 -24.5 190.5t29.5 133.5t65 86.5t82 50t81.5 23t62.5 6.5h25z" />
<glyph unicode="&#xf0f2;" horiz-adv-x="1516" d="M441 741q138 0 236 98t98 237q0 138 -98 236t-236 98q-139 0 -237 -98t-98 -236q0 -139 98 -237t237 -98zM441 1516q182 0 311 -129t129 -311q0 -183 -129 -312t-311 -129q-183 0 -312 129t-129 312q0 182 129 311t312 129zM1516 438v884h-681l63 -130h508v-624l-717 4 l63 -134h764zM448 1036l128 -266q-68 -29 -135 -29q-54 0 -112 20zM622 674l322 -674h-944l287 663q61 -23 129 -27l-210 -486h522l-233 489q66 7 127 35z" />
<glyph unicode="&#xf0f3;" horiz-adv-x="1586" d="M1579 197h-62v-127h-136v-70h198v197zM55 1381v140h142v58h-197v-198h55zM197 1422h-43v-41h43v41zM578 584v98h-426v740h740v-413h99v512h-938v-937h525zM1579 1579v-198h-198v198h198zM197 197v-197h-197v197h197zM1519 1005v-937h-937v937h937z" />
<glyph unicode="&#xf0f4;" d="M1066 515l-84 -156l-456 247l84 156zM970 1208l87 -154l-453 -253l-86 154zM1535 324q0 -134 -95 -229t-229 -95t-228.5 95t-94.5 229t94.5 229t228.5 95t229 -95t95 -229zM1535 1211q0 -134 -95 -228.5t-229 -94.5t-228.5 94.5t-94.5 228.5t94.5 229t228.5 95t229 -95 t95 -229zM648 768q0 -134 -95 -229t-229 -95t-229 95t-95 229t95 228.5t229 94.5t229 -94.5t95 -228.5z" />
<glyph unicode="&#xf0f5;" horiz-adv-x="1534" d="M311 962v218h-309v-218h309zM311 407v218h-309v-218h309zM1191 962v218h-291v-218h291zM1173 402v219h-343v-219h343zM1054 1024l-155 155l-741 -619l154 -154zM372 811l154 154l-214 214l-154 -155zM829 404l154 154l-187 187l-155 -154zM1244 274v459l291 -230z M1244 827v460l291 -230z" />
<glyph unicode="&#xf0f6;" horiz-adv-x="1590" d="M0 966v-550h824v550h-824zM896 0v1382l691 -691z" />
<glyph unicode="&#xf0f7;" horiz-adv-x="1542" d="M1091 420q29 69 29 163q0 97 -46 165q-45 69 -111 102q-77 38 -129 57q-62 23 -110 57q-46 31 -46 73q0 41 31 69q33 28 112 28q82 0 142 -28q22 -11 27 -11q26 0 55 50q29 48 29 83q0 40 -79 74q-82 34 -196 34q-207 0 -308 -134q-55 -75 -55 -176q0 -105 46 -173 q48 -69 110 -101q70 -36 130 -59q62 -23 111 -58q46 -35 46 -83q0 -112 -144 -112q-90 0 -186 54q-31 17 -39 17q-24 0 -60 -51q-35 -52 -35 -86q0 -45 99 -90q98 -44 247 -44q147 0 248 73q53 41 82 107zM1535 768q0 -125 -40 -243q37 -74 37 -159q0 -152 -107 -259 t-258 -107q-86 0 -162 39q-117 -38 -235 -38q-208 0 -384.5 103t-279 279.5t-102.5 384.5q0 120 37 234q-41 79 -41 167q0 152 107 259t258 107q88 0 164 -39q119 39 241 39q156 0 297.5 -60.5t244 -163.5t163 -245t60.5 -298z" />
<glyph unicode="&#xf0f8;" d="M768 171q162 0 299.5 80t217.5 217.5t80 299.5q0 121 -47.5 231.5t-127.5 190.5t-190.5 127.5t-231.5 47.5q-162 0 -299.5 -80t-217.5 -217.5t-80 -299.5t80 -299.5t217.5 -217.5t299.5 -80zM768 1535q208 0 384.5 -102.5t279.5 -279.5t103 -385q0 -209 -103 -385.5 t-279.5 -279.5t-384.5 -103q-209 0 -385.5 103t-279.5 279.5t-103 385.5q0 156 61 298t163.5 245t245 163.5t298.5 60.5zM851 896v289q0 34 -25.5 58.5t-60.5 24.5t-60 -24.5t-25 -58.5v-289q0 -34 25 -58.5t60 -24.5t60.5 24.5t25.5 58.5zM891 671h288q35 0 59.5 25 t24.5 60t-24.5 60t-59.5 25h-288q-34 0 -58.5 -25t-24.5 -60t24.5 -60t58.5 -25z" />
<glyph unicode="&#xf0f9;" horiz-adv-x="880" d="M877 1535v-1535h-122l-347 394l-2 768l349 373h122zM324 1153v-771h-324v771h324z" />
<glyph unicode="&#xf0fa;" horiz-adv-x="1315" d="M744 526l105 -526h-393l105 526h183zM661 1535l85 -134q129 -203 335 -395q127 -118 179 -217q53 -98 53 -220q0 -142 -101 -245q-100 -102 -241 -102q-177 0 -317 229q-146 -224 -324 -224q-141 0 -237 102q-93 102 -93 256q0 104 43 202q43 100 115 163l87 76 q114 98 229 262l60 85q13 20 100 129z" />
<glyph unicode="&#xf0fb;" horiz-adv-x="1675" d="M1542 662l-854 -393l-568 150l554 -419l871 659zM1652 895l20 -122q-54 -25 -149 -25q-130 0 -206.5 74t-76.5 199q0 123 81 203.5t225 80.5q73 0 127 -20l-26 -124q-38 17 -93 17q-65 0 -104.5 -42t-38.5 -108q0 -71 41.5 -110.5t104.5 -39.5q56 0 95 17zM613 918v617 h166v-305h2q52 75 162 75q97 0 159 -74t61 -196q-1 -136 -72.5 -212t-171.5 -76q-109 0 -161 86h-2l-6 -74h-142q5 58 5 159zM779 1065v-79q0 -17 3 -29q8 -34 35.5 -56.5t62.5 -22.5q54 0 84.5 40t30.5 111q0 65 -29.5 107t-85.5 42q-34 0 -62 -23.5t-36 -59.5 q-3 -13 -3 -30zM480 1075v-187q0 -92 9 -129h-150l-10 53h-3q-54 -65 -153 -65q-78 0 -125.5 48.5t-47.5 115.5q0 101 84 152.5t230 51.5v7q0 70 -97 70q-83 0 -148 -41l-31 107q86 49 208 49q125 0 179.5 -63.5t54.5 -168.5zM319 953v58q-155 0 -155 -84q0 -31 18 -47 t48 -16t54 17.5t32 43.5q3 8 3 28z" />
<glyph unicode="&#xf0fc;" horiz-adv-x="1539" d="M692 1465q0 44 36.5 62.5t73 0t36.5 -62.5v-367q0 -44 -36.5 -62.5t-73 0t-36.5 62.5v367zM692 445q0 44 36.5 62.5t73 0t36.5 -62.5v-375q0 -43 -36.5 -61t-73 0t-36.5 61v375zM1094 695q-34 0 -53 22.5t-19 50t19 50t53 22.5h370q34 0 53 -22.5t19 -50t-19 -50 t-53 -22.5h-370zM71 698q-44 0 -62.5 36t0 72.5t62.5 36.5h373q34 0 53 -23t19 -50t-19 -50t-53 -23q-249 0 -373 1zM220 1208q-19 19 -21.5 42.5t10 42t30.5 30.5t42 9.5t43 -21.5q39 -38 117 -115.5t117 -116.5q19 -19 21.5 -42.5t-10 -42t-30.5 -30.5t-42 -9.5t-43 21.5 q-39 39 -117 116t-117 116zM976 458q-19 19 -21.5 42.5t10 41.5t30.5 30t42 10t43 -21q39 -39 116 -115.5t115 -114.5q19 -19 21.5 -42.5t-10 -41.5t-30.5 -30t-42 -10t-43 21q-38 38 -115 114.5t-116 115.5zM1080 973q-19 -19 -42.5 -21t-41.5 10t-30.5 30t-10 41.5 t21.5 42.5q156 156 234 233q19 19 43 21.5t42 -9.5t30.5 -30.5t10 -42t-21.5 -42.5q-39 -39 -117.5 -116.5t-117.5 -116.5zM328 230q-19 -19 -43 -21.5t-42 9.5t-30.5 30.5t-10 42t21.5 42.5q38 38 114.5 113.5t114.5 113.5q19 19 43 21.5t42 -9.5t30.5 -30.5t10 -42 t-21.5 -42.5q-152 -150 -229 -227z" />
<glyph unicode="&#xf0fd;" horiz-adv-x="1538" d="M1391 144v1247h-1247v-1247h1247zM0 1535h1535v-1535h-1535v1535zM1103 864h-671v-192h671v192z" />
<glyph unicode="&#xf0fe;" d="M1391 144v1247h-1247v-1247h1247zM0 1535h1535v-1535h-1535v1535zM1103 864h-671v-192h671v192zM672 1103v-671h192v671h-192z" />
<glyph unicode="&#xf100;" horiz-adv-x="1618" d="M558 1030l249 505l250 -505l557 -81l-403 -394l95 -555l-499 262l-499 -262l96 555l-404 394z" />
<glyph unicode="&#xf101;" horiz-adv-x="1536" d="M1391 144v1247h-1247v-1247h1247zM0 1535h1535v-1535h-1535v1535z" />
</font>
</defs>
</svg>
