<?xml version="1.0" encoding="iso-8859-1"?>
<!-- Generator: Adobe Illustrator 15.0.2, SVG Export Plug-In . SVG Version: 6.00 Build 0)  -->
<!DOCTYPE svg PUBLIC "-//W3C//DTD SVG 1.1//EN" "http://www.w3.org/Graphics/SVG/1.1/DTD/svg11.dtd">
<svg version="1.1" id="Layer_1" xmlns="http://www.w3.org/2000/svg" xmlns:xlink="http://www.w3.org/1999/xlink" x="0px" y="0px"
	 width="480px" height="290px" viewBox="0 0 480 290" style="enable-background:new 0 0 480 290;" xml:space="preserve">
<rect style="fill:#E6E7E8;stroke:#FFFFFF;stroke-miterlimit:10;" width="479.462" height="290"/>
<g>
	<path style="fill:#39B54A;" d="M128.051,66.712c2.672,1.99,66.146,91.518,66.146,91.518l94.876-23.211l28.061-40.454
		c0,0,11.358-23.875,0-23.875c-11.357,0,19.378-39.126-39.419-39.126c-58.797,0-114.92,0-114.92,0L128.051,66.712z"/>
	<g>
		<path style="fill:#FFFFFF;" d="M125.576,69.188c4.283,3.548,7.795,10.151,11.263,14.906c7.578,10.392,15.073,20.844,22.56,31.302
			c10.626,14.843,21.218,29.71,31.776,44.602c0.939,1.324,2.317,2.009,3.953,1.608c23.994-5.87,47.988-11.74,71.982-17.61
			c5.719-1.399,11.437-2.798,17.155-4.197c2.39-0.584,6.302-0.808,7.831-3.012c7.04-10.149,14.08-20.299,21.12-30.448
			c5.95-8.579,11.244-16.398,12.325-27.243c0.295-2.964,0.167-6.244-1.692-8.72c-1.902-2.535-5.43-2.802-6.897-3.222
			c1.561,0.447,0.865,1.438,0.865-0.46c0-1.835,0.312-3.679,0.537-5.496c1.313-10.581-0.32-20.482-9.824-26.747
			c-7.476-4.928-17.348-5.884-26.034-6.293c-15.632-0.736-31.436-0.092-47.085-0.092c-18.149,0-36.298,0-54.447,0
			c-4.914,0-9.829,0-14.743,0c-1.941,0-4.475-0.418-5.974,1.099c-11.557,11.691-23.113,23.383-34.67,35.074
			c-3.175,3.212,1.773,8.164,4.95,4.95c11.581-11.716,23.162-23.432,34.743-35.148c-0.825,0.341-1.65,0.683-2.475,1.025
			c14.554,0,29.109,0,43.663,0c14.639,0,29.278,0,43.917,0c14.191,0,29.104-1.328,43.128,1.266
			c6.353,1.175,13.23,3.593,16.578,9.511c2.174,3.843,1.958,8.619,1.557,12.858c-0.34,3.579-1.228,7.207-0.544,10.794
			c0.312,1.631,1.383,2.954,2.727,3.858c1.539,1.036,4.178,0.081,4.731,2.001c1.469,5.096-2.259,12.706-4.358,17.274
			c-1.531,3.332-4.447,6.469-6.528,9.467c-7.199,10.379-14.398,20.758-21.598,31.137c1.435-2.068,2.903-1.789,0.283-1.147
			c-1.836,0.449-3.671,0.898-5.506,1.347c-6.055,1.481-12.109,2.962-18.163,4.444c-15.507,3.793-31.013,7.587-46.52,11.381
			c-7.631,1.866-15.263,3.733-22.895,5.601c1.318,0.536,2.635,1.072,3.953,1.608c-10.753-15.167-21.542-30.308-32.365-45.424
			c-7.442-10.396-14.899-20.782-22.432-31.112c-2.617-3.588-5.242-7.171-7.917-10.715c-1.215-1.609-2.405-3.672-3.978-4.975
			C127.078,61.381,122.097,66.305,125.576,69.188z"/>
	</g>
</g>
<g>
	<g>
		<path style="fill:#FFFFFF;" d="M127.121,63.337c-18.461,5.891-36.923,11.782-55.385,17.672c-4.283,1.367-2.452,8.126,1.861,6.75
			c18.461-5.891,36.923-11.782,55.385-17.672C133.265,68.721,131.434,61.961,127.121,63.337L127.121,63.337z"/>
	</g>
</g>
<g>
	<g>
		<path style="fill:#FFFFFF;" d="M201.613,293.022c45.491-21.31,91.949-40.624,137.9-60.915
			c46.902-20.712,93.738-41.574,140.769-61.994c4.131-1.794,0.563-7.823-3.533-6.045c-46.426,20.158-92.665,40.743-138.962,61.196
			c-46.55,20.564-93.62,40.124-139.707,61.713C193.995,288.892,197.551,294.925,201.613,293.022L201.613,293.022z"/>
	</g>
</g>
<g>
	<g>
		<path style="fill:#FFFFFF;" d="M125.715,293.022c58.904-26.409,117.917-52.575,176.944-78.706
			c29.589-13.098,59.182-26.188,88.766-39.296c14.537-6.441,29.072-12.887,43.604-19.34c14.652-6.506,29.416-13.553,44.464-19.08
			c4.2-1.543,2.386-8.31-1.861-6.75c-13.773,5.059-27.271,11.406-40.678,17.361c-15.141,6.727-30.285,13.443-45.432,20.155
			c-30.191,13.38-60.392,26.738-90.588,40.104c-59.631,26.396-119.247,52.828-178.752,79.506
			C118.069,288.822,121.632,294.853,125.715,293.022L125.715,293.022z"/>
	</g>
</g>
<g>
	<g>
		<path style="fill:#FFFFFF;" d="M241.205,147.757c21.846,44.309,43.691,88.616,65.537,132.924
			c1.822,3.695,3.645,7.391,5.466,11.086c1.996,4.049,8.033,0.5,6.045-3.533c-21.846-44.308-43.691-88.615-65.537-132.924
			c-1.822-3.695-3.645-7.39-5.466-11.085C245.254,140.175,239.217,143.724,241.205,147.757L241.205,147.757z"/>
	</g>
</g>
<g>
	<g>
		<path style="fill:#FFFFFF;" d="M286.051,136.786c22.895,44.351,45.789,88.701,68.685,133.052
			c3.772,7.31,7.546,14.619,11.319,21.929c2.071,4.013,8.111,0.471,6.045-3.533c-22.895-44.351-45.789-88.701-68.685-133.052
			c-3.772-7.31-7.546-14.619-11.319-21.929C290.024,129.241,283.984,132.782,286.051,136.786L286.051,136.786z"/>
	</g>
</g>
<g>
	<g>
		<path style="fill:#FFFFFF;" d="M191.175,159.997c20.247,42.988,40.493,85.978,60.739,128.966c0.44,0.935,0.881,1.869,1.32,2.804
			c1.923,4.081,7.956,0.525,6.045-3.533c-20.247-42.988-40.494-85.978-60.74-128.966c-0.44-0.935-0.88-1.869-1.32-2.804
			C195.296,152.383,189.263,155.938,191.175,159.997L191.175,159.997z"/>
	</g>
</g>
<g>
	<g>
		<path style="fill:#FFFFFF;" d="M323.49,1.767c10.607,25.086,22.535,49.572,34.511,74.026
			c6.083,12.421,12.164,24.844,18.081,37.346c2.945,6.223,5.832,12.474,8.666,18.749c1.285,2.846,2.548,5.703,3.803,8.562
			c1.416,3.223,2.48,7.422,4.427,10.318c6.743,10.03,11.244,21.188,15.762,32.338c4.837,11.938,10.639,23.244,16.488,34.707
			c6.409,12.559,12.554,25.251,18.212,38.167c2.75,6.276,5.065,12.755,7.985,18.952c2.558,5.427,5.743,10.522,8.144,16.029
			c1.801,4.129,7.83,0.562,6.045-3.533c-2.17-4.978-4.906-9.667-7.384-14.492c-3.092-6.021-5.321-12.524-7.989-18.746
			c-5.551-12.94-11.726-25.606-18.082-38.167c-6.09-12.033-12.234-23.831-17.303-36.344c-2.229-5.499-4.471-10.99-6.93-16.391
			c-2.653-5.828-6.819-11.109-9.277-16.94c-21.175-50.231-47.883-97.904-69.113-148.113C327.782-5.912,321.754-2.34,323.49,1.767
			L323.49,1.767z"/>
	</g>
</g>
<g>
	<path style="fill:#39B54A;" d="M479.462,95.018V-0.027c-8.803-0.424-126.678-4.938-110.385,58.258
		C374.328,78.597,410,99.154,410,99.154v11.455L479.462,95.018z"/>
	<g>
		<path style="fill:#FFFFFF;" d="M482.962,95.018c0-31.682,0-63.364,0-95.045c0-1.977-1.595-3.41-3.5-3.5
			c-21.383-1.015-43.357,0.428-64.254,5.101c-25.104,5.613-54.293,20.047-50.855,50.298c2.616,23.013,25.185,39.481,43.881,50.304
			c-0.578-1.007-1.155-2.015-1.733-3.022c0,3.818,0,7.636,0,11.455c0,2.358,2.226,3.87,4.431,3.375
			c23.153-5.197,46.308-10.394,69.462-15.59c4.403-0.988,2.536-7.737-1.861-6.75c-23.153,5.197-46.308,10.394-69.462,15.59
			c1.478,1.125,2.954,2.25,4.431,3.375c0-3.639,1.767-12.423-1.977-14.619c-5.384-3.159-10.527-6.753-15.495-10.525
			c-14.016-10.642-27.81-24.947-24.566-43.976c4.658-27.335,42.909-33.845,65.225-36.469c14.14-1.662,28.547-2.222,42.775-1.547
			c-1.167-1.167-2.333-2.333-3.5-3.5c0,31.682,0,63.364,0,95.045C475.962,99.532,482.962,99.532,482.962,95.018z"/>
	</g>
</g>
<polygon style="fill:#27AAE1;" points="8.744,0 2.59,81.82 28.231,110.608 52.333,181.82 58.487,203.872 107.718,209 
	116.949,239.257 77.744,274.641 67.718,290 80.539,290 99.513,273.615 121.051,246.948 128.231,232.077 121.051,212.51 
	112.103,199.257 90.795,195.667 65.667,192.077 62.59,170.538 54.897,145 39.513,105.41 17.461,75.549 17.461,46.949 17.461,20.795 
	17.461,-0.251 "/>
<g>
	<line style="fill:#FFF200;" x1="35.231" y1="0" x2="103.949" y2="290"/>
	<g>
		<path style="fill:#FFF200;" d="M31.856,0.931c9.619,40.595,19.239,81.19,28.858,121.785
			c12.554,52.98,25.108,105.961,37.663,158.94c0.732,3.092,1.465,6.183,2.197,9.274c1.041,4.392,7.79,2.528,6.75-1.861
			c-9.619-40.595-19.239-81.19-28.858-121.785C65.912,114.304,53.357,61.324,40.803,8.343c-0.732-3.091-1.465-6.183-2.197-9.274
			C37.565-5.322,30.816-3.459,31.856,0.931L31.856,0.931z"/>
	</g>
</g>
<g>
	<line style="fill:#FFF200;" x1="50.385" y1="0" x2="119.103" y2="290"/>
	<g>
		<path style="fill:#FFF200;" d="M47.01,0.931c9.62,40.595,19.239,81.19,28.858,121.785c12.554,52.98,25.108,105.961,37.662,158.94
			c0.733,3.092,1.465,6.183,2.198,9.274c1.041,4.392,7.79,2.528,6.75-1.861c-9.62-40.595-19.239-81.19-28.858-121.785
			C81.065,114.304,68.511,61.324,55.957,8.343c-0.732-3.091-1.465-6.183-2.197-9.274C52.719-5.322,45.97-3.459,47.01,0.931
			L47.01,0.931z"/>
	</g>
</g>
<g>
	<g>
		<path style="fill:#FFFFFF;" d="M0.399,198.651c17.444-5.128,34.889-10.257,52.333-15.385c1.852-0.544,1.063-3.439-0.798-2.893
			c-17.444,5.128-34.889,10.257-52.333,15.385C-2.25,196.303-1.462,199.198,0.399,198.651L0.399,198.651z"/>
	</g>
</g>
<g>
	<g>
		<path style="fill:#FFFFFF;" d="M0.399,251.472c28.248-8.637,56.496-17.273,84.744-25.91c1.844-0.563,1.057-3.46-0.798-2.893
			c-28.248,8.637-56.496,17.273-84.744,25.91C-2.243,249.143-1.456,252.039,0.399,251.472L0.399,251.472z"/>
	</g>
</g>
<g>
	<g>
		<path style="fill:#FFFFFF;" d="M-3.375,146.921c11.395,46.577,22.79,93.153,34.184,139.729c0.349,1.427,0.698,2.854,1.047,4.28
			c1.072,4.383,7.823,2.523,6.75-1.861c-11.395-46.576-22.79-93.152-34.184-139.729c-0.349-1.427-0.698-2.853-1.047-4.28
			C2.303,140.677-4.448,142.537-3.375,146.921L-3.375,146.921z"/>
	</g>
</g>
</svg>
