<?xml version="1.0" encoding="iso-8859-1"?>
<!-- Generator: Adobe Illustrator 15.0.2, SVG Export Plug-In . SVG Version: 6.00 Build 0)  -->
<!DOCTYPE svg PUBLIC "-//W3C//DTD SVG 1.1//EN" "http://www.w3.org/Graphics/SVG/1.1/DTD/svg11.dtd">
<svg version="1.1" id="Layer_1" xmlns="http://www.w3.org/2000/svg" xmlns:xlink="http://www.w3.org/1999/xlink" x="0px" y="0px"
	 width="200px" height="200px" viewBox="0 0 200 200" style="enable-background:new 0 0 200 200;" xml:space="preserve">
<path style="fill:#58595B;" d="M8.915,199.753h183.924c2.112-7.573,1.608-16.985,1.608-16.985
	c-2.062-12.619-2.619-19.48-2.619-19.48c-0.189-21.34-11.041-24.311-11.041-24.311c-10.48-6.125-42.479-14.102-42.479-14.102
	c-0.189-2.602-5.427-3.525-5.427-3.525c-4.116-7.236-9.36-7.049-9.36-7.049c-1.681-7.982-0.744-15.961-0.744-15.961
	c2.432-4.452,3.93-11.318,3.93-11.318c2.059-2.228,5.053-10.391,5.053-10.391l1.494-2.782c2.059,2.409,3.744,7.052,3.744,7.052
	c0.744-2.227-0.561-7.979-0.561-7.979c1.682,3.523,2.619,2.039,2.619,2.039c2.436-6.124,0-12.987,0-12.987
	c1.87,3.342,7.11,4.269,7.11,4.269c-3.556-0.927-3.556-7.982-3.556-7.982c1.308,2.414,5.988,3.156,5.988,3.156l-3.184-4.64
	c5.988-0.37,2.621-6.306,2.621-6.306l-5.801-4.082l7.312-0.726c-0.584,0.041-2.762,0.025-7.312-1.69
	c-0.168-0.06-0.33-0.125-0.484-0.194c-4.887-2.125-4.008-6.484-4.008-6.484l5.428-1.484l-7.111-0.926
	c0-3.895-1.873-5.383-1.873-5.383c4.119,0,8.611,2.786,8.611,2.786c-2.432-3.713-6.176-3.339-6.176-3.339
	c0-2.413-2.248-3.899-2.248-3.899c1.686,0,2.994-1.483,2.994-1.483c-8.047,0.928-11.973-5.752-11.973-5.752
	C104.809-2.413,82.54,9.464,82.54,9.464c-0.935,3.713-3.368,3.711-3.368,3.711c-12.727,0.185-13.848,9.278-13.848,9.278
	c-2.62-1.298-4.493-4.639-4.493-4.639c0,2.228,2.433,5.013,2.433,5.013l-2.059,1.667l-2.056-1.854l0.936,2.597l-1.124,1.672
	c-3.554,1.483-0.371,3.521-0.371,3.521c-3.183,0-2.065,5.197-2.065,5.197c-1.679,0.557-0.744,4.084-0.744,4.084l-0.75,2.41
	l2.43,0.742l-0.744,2.229l1.682,2.968l-1.306,2.598l1.868,1.296l-1.683,5.382l1.871-0.927c-3.37,4.825-1.871,11.503-1.871,11.503
	c0.183-3.339,1.871-3.708,1.871-3.708v4.081c-0.377,4.639-2.624,3.155-2.624,3.155c0.568,1.295,1.501,1.295,1.501,1.295
	l-1.309,2.043c-0.562,2.969,1.497,3.527,1.497,3.527c1.309-1.858,3.556,0.554,3.556,0.554c0,1.116,2.804,5.197,2.804,5.197
	c-0.56,2.04,0.564,4.269,0.564,4.269c2.618-1.301,3.93,2.038,3.93,2.038c0.75,4.828,5.238,4.271,5.238,4.271l2.247,3.153
	c-0.373,5.751,1.685,17.068,1.685,17.068c-5.426,0.932-11.041,8.906-11.041,8.906c-1.309-0.557-5.052,2.783-5.052,2.783l-32,7.797
	c-14.97,7.234-16.655,23.934-16.655,23.934c-0.5,0.854-1.066,1.982-1.667,3.275c-0.197,3.746-0.545,7.52-1.042,11.291
	c0.32,7.412-1.272,14.635-1.655,22.07C9.042,196.531,8.98,198.144,8.915,199.753z"/>
</svg>
